<mxfile host="app.diagrams.net" modified="2024-03-02T02:28:39.833Z" agent="Mozilla/5.0 (Macintosh; Intel Mac OS X 10_15_7) AppleWebKit/537.36 (KHTML, like Gecko) Chrome/122.0.0.0 Safari/537.36" etag="FtEHmWnWhF1_A4mra0Yd" version="24.0.0" type="device">
  <diagram id="C5RBs43oDa-KdzZeNtuy" name="Page-1">
    <mxGraphModel dx="2848" dy="1757" grid="1" gridSize="10" guides="1" tooltips="1" connect="1" arrows="1" fold="1" page="1" pageScale="1" pageWidth="827" pageHeight="1169" math="0" shadow="0">
      <root>
        <mxCell id="WIyWlLk6GJQsqaUBKTNV-0" />
        <mxCell id="WIyWlLk6GJQsqaUBKTNV-1" parent="WIyWlLk6GJQsqaUBKTNV-0" />
        <mxCell id="zkfFHV4jXpPFQw0GAbJ--0" value="TravelPackage" style="swimlane;fontStyle=2;align=center;verticalAlign=top;childLayout=stackLayout;horizontal=1;startSize=26;horizontalStack=0;resizeParent=1;resizeLast=0;collapsible=1;marginBottom=0;rounded=0;shadow=0;strokeWidth=1;" parent="WIyWlLk6GJQsqaUBKTNV-1" vertex="1">
          <mxGeometry x="20" y="-930" width="360" height="762" as="geometry">
            <mxRectangle x="230" y="140" width="160" height="26" as="alternateBounds" />
          </mxGeometry>
        </mxCell>
        <mxCell id="zkfFHV4jXpPFQw0GAbJ--1" value="field(int) : travelID" style="text;align=left;verticalAlign=top;spacingLeft=4;spacingRight=4;overflow=hidden;rotatable=0;points=[[0,0.5],[1,0.5]];portConstraint=eastwest;" parent="zkfFHV4jXpPFQw0GAbJ--0" vertex="1">
          <mxGeometry y="26" width="360" height="26" as="geometry" />
        </mxCell>
        <mxCell id="zkfFHV4jXpPFQw0GAbJ--2" value="field(String) : travelPackageName" style="text;align=left;verticalAlign=top;spacingLeft=4;spacingRight=4;overflow=hidden;rotatable=0;points=[[0,0.5],[1,0.5]];portConstraint=eastwest;rounded=0;shadow=0;html=0;" parent="zkfFHV4jXpPFQw0GAbJ--0" vertex="1">
          <mxGeometry y="52" width="360" height="26" as="geometry" />
        </mxCell>
        <mxCell id="zkfFHV4jXpPFQw0GAbJ--3" value="field(int) : passengerCapacity" style="text;align=left;verticalAlign=top;spacingLeft=4;spacingRight=4;overflow=hidden;rotatable=0;points=[[0,0.5],[1,0.5]];portConstraint=eastwest;rounded=0;shadow=0;html=0;" parent="zkfFHV4jXpPFQw0GAbJ--0" vertex="1">
          <mxGeometry y="78" width="360" height="26" as="geometry" />
        </mxCell>
        <mxCell id="ML5cCSZE7fHTFNNnrcKf-0" value="field(List&lt;Destination&gt;) : destinationList" style="text;align=left;verticalAlign=top;spacingLeft=4;spacingRight=4;overflow=hidden;rotatable=0;points=[[0,0.5],[1,0.5]];portConstraint=eastwest;rounded=0;shadow=0;html=0;" vertex="1" parent="zkfFHV4jXpPFQw0GAbJ--0">
          <mxGeometry y="104" width="360" height="26" as="geometry" />
        </mxCell>
        <mxCell id="ML5cCSZE7fHTFNNnrcKf-1" value="field(List&lt;Passenger&gt;) : passengerList" style="text;align=left;verticalAlign=top;spacingLeft=4;spacingRight=4;overflow=hidden;rotatable=0;points=[[0,0.5],[1,0.5]];portConstraint=eastwest;rounded=0;shadow=0;html=0;" vertex="1" parent="zkfFHV4jXpPFQw0GAbJ--0">
          <mxGeometry y="130" width="360" height="26" as="geometry" />
        </mxCell>
        <mxCell id="ML5cCSZE7fHTFNNnrcKf-2" value="field(List&lt;Passenger&gt;) : subscribedPassengerList" style="text;align=left;verticalAlign=top;spacingLeft=4;spacingRight=4;overflow=hidden;rotatable=0;points=[[0,0.5],[1,0.5]];portConstraint=eastwest;rounded=0;shadow=0;html=0;" vertex="1" parent="zkfFHV4jXpPFQw0GAbJ--0">
          <mxGeometry y="156" width="360" height="26" as="geometry" />
        </mxCell>
        <mxCell id="ML5cCSZE7fHTFNNnrcKf-51" value="getter : getTravelPkgId" style="text;align=left;verticalAlign=top;spacingLeft=4;spacingRight=4;overflow=hidden;rotatable=0;points=[[0,0.5],[1,0.5]];portConstraint=eastwest;rounded=0;shadow=0;html=0;" vertex="1" parent="zkfFHV4jXpPFQw0GAbJ--0">
          <mxGeometry y="182" width="360" height="26" as="geometry" />
        </mxCell>
        <mxCell id="ML5cCSZE7fHTFNNnrcKf-52" value="setter : setTravelPkgId(int)" style="text;align=left;verticalAlign=top;spacingLeft=4;spacingRight=4;overflow=hidden;rotatable=0;points=[[0,0.5],[1,0.5]];portConstraint=eastwest;rounded=0;shadow=0;html=0;" vertex="1" parent="zkfFHV4jXpPFQw0GAbJ--0">
          <mxGeometry y="208" width="360" height="26" as="geometry" />
        </mxCell>
        <mxCell id="ML5cCSZE7fHTFNNnrcKf-56" value="getter : getTravelPkgPassengerCapacity" style="text;align=left;verticalAlign=top;spacingLeft=4;spacingRight=4;overflow=hidden;rotatable=0;points=[[0,0.5],[1,0.5]];portConstraint=eastwest;rounded=0;shadow=0;html=0;" vertex="1" parent="zkfFHV4jXpPFQw0GAbJ--0">
          <mxGeometry y="234" width="360" height="26" as="geometry" />
        </mxCell>
        <mxCell id="ML5cCSZE7fHTFNNnrcKf-55" value="setter : setTravelPkgPassengerCapacity(int)" style="text;align=left;verticalAlign=top;spacingLeft=4;spacingRight=4;overflow=hidden;rotatable=0;points=[[0,0.5],[1,0.5]];portConstraint=eastwest;rounded=0;shadow=0;html=0;" vertex="1" parent="zkfFHV4jXpPFQw0GAbJ--0">
          <mxGeometry y="260" width="360" height="26" as="geometry" />
        </mxCell>
        <mxCell id="ML5cCSZE7fHTFNNnrcKf-57" value="method(void) : updateTravelPkgPassengerCapacity(int)" style="text;align=left;verticalAlign=top;spacingLeft=4;spacingRight=4;overflow=hidden;rotatable=0;points=[[0,0.5],[1,0.5]];portConstraint=eastwest;rounded=0;shadow=0;html=0;" vertex="1" parent="zkfFHV4jXpPFQw0GAbJ--0">
          <mxGeometry y="286" width="360" height="26" as="geometry" />
        </mxCell>
        <mxCell id="ML5cCSZE7fHTFNNnrcKf-58" value="getter : getTravelPkgName" style="text;align=left;verticalAlign=top;spacingLeft=4;spacingRight=4;overflow=hidden;rotatable=0;points=[[0,0.5],[1,0.5]];portConstraint=eastwest;rounded=0;shadow=0;html=0;" vertex="1" parent="zkfFHV4jXpPFQw0GAbJ--0">
          <mxGeometry y="312" width="360" height="26" as="geometry" />
        </mxCell>
        <mxCell id="ML5cCSZE7fHTFNNnrcKf-59" value="setter : setTravelPkgName(String)" style="text;align=left;verticalAlign=top;spacingLeft=4;spacingRight=4;overflow=hidden;rotatable=0;points=[[0,0.5],[1,0.5]];portConstraint=eastwest;rounded=0;shadow=0;html=0;" vertex="1" parent="zkfFHV4jXpPFQw0GAbJ--0">
          <mxGeometry y="338" width="360" height="26" as="geometry" />
        </mxCell>
        <mxCell id="ML5cCSZE7fHTFNNnrcKf-60" value="method(Destination) : getDestinationByIdFromDestList(id)" style="text;align=left;verticalAlign=top;spacingLeft=4;spacingRight=4;overflow=hidden;rotatable=0;points=[[0,0.5],[1,0.5]];portConstraint=eastwest;rounded=0;shadow=0;html=0;" vertex="1" parent="zkfFHV4jXpPFQw0GAbJ--0">
          <mxGeometry y="364" width="360" height="26" as="geometry" />
        </mxCell>
        <mxCell id="ML5cCSZE7fHTFNNnrcKf-61" value="method(Passenger) : getDestinationByIdFromDestList(id)" style="text;align=left;verticalAlign=top;spacingLeft=4;spacingRight=4;overflow=hidden;rotatable=0;points=[[0,0.5],[1,0.5]];portConstraint=eastwest;rounded=0;shadow=0;html=0;" vertex="1" parent="zkfFHV4jXpPFQw0GAbJ--0">
          <mxGeometry y="390" width="360" height="26" as="geometry" />
        </mxCell>
        <mxCell id="ML5cCSZE7fHTFNNnrcKf-62" value="method(List&lt;Destination&gt;) : getDestinationList" style="text;align=left;verticalAlign=top;spacingLeft=4;spacingRight=4;overflow=hidden;rotatable=0;points=[[0,0.5],[1,0.5]];portConstraint=eastwest;rounded=0;shadow=0;html=0;" vertex="1" parent="zkfFHV4jXpPFQw0GAbJ--0">
          <mxGeometry y="416" width="360" height="26" as="geometry" />
        </mxCell>
        <mxCell id="ML5cCSZE7fHTFNNnrcKf-63" value="method(void) : addDestinationInList(Destination)" style="text;align=left;verticalAlign=top;spacingLeft=4;spacingRight=4;overflow=hidden;rotatable=0;points=[[0,0.5],[1,0.5]];portConstraint=eastwest;rounded=0;shadow=0;html=0;" vertex="1" parent="zkfFHV4jXpPFQw0GAbJ--0">
          <mxGeometry y="442" width="360" height="26" as="geometry" />
        </mxCell>
        <mxCell id="ML5cCSZE7fHTFNNnrcKf-65" value="method(List&lt;Passenger&gt;) : getPassengerList" style="text;align=left;verticalAlign=top;spacingLeft=4;spacingRight=4;overflow=hidden;rotatable=0;points=[[0,0.5],[1,0.5]];portConstraint=eastwest;rounded=0;shadow=0;html=0;" vertex="1" parent="zkfFHV4jXpPFQw0GAbJ--0">
          <mxGeometry y="468" width="360" height="26" as="geometry" />
        </mxCell>
        <mxCell id="ML5cCSZE7fHTFNNnrcKf-66" value="method(void) : addPassengerInList(Passenger)" style="text;align=left;verticalAlign=top;spacingLeft=4;spacingRight=4;overflow=hidden;rotatable=0;points=[[0,0.5],[1,0.5]];portConstraint=eastwest;rounded=0;shadow=0;html=0;" vertex="1" parent="zkfFHV4jXpPFQw0GAbJ--0">
          <mxGeometry y="494" width="360" height="26" as="geometry" />
        </mxCell>
        <mxCell id="ML5cCSZE7fHTFNNnrcKf-67" value="method(List&lt;Passenger&gt;) : getSubscribedPassengerList" style="text;align=left;verticalAlign=top;spacingLeft=4;spacingRight=4;overflow=hidden;rotatable=0;points=[[0,0.5],[1,0.5]];portConstraint=eastwest;rounded=0;shadow=0;html=0;" vertex="1" parent="zkfFHV4jXpPFQw0GAbJ--0">
          <mxGeometry y="520" width="360" height="26" as="geometry" />
        </mxCell>
        <mxCell id="ML5cCSZE7fHTFNNnrcKf-68" value="method(void) : addSubscribedPassengerInList(Passenger)" style="text;align=left;verticalAlign=top;spacingLeft=4;spacingRight=4;overflow=hidden;rotatable=0;points=[[0,0.5],[1,0.5]];portConstraint=eastwest;rounded=0;shadow=0;html=0;" vertex="1" parent="zkfFHV4jXpPFQw0GAbJ--0">
          <mxGeometry y="546" width="360" height="26" as="geometry" />
        </mxCell>
        <mxCell id="ML5cCSZE7fHTFNNnrcKf-69" value="method(boolean) : isPassengerExhausted" style="text;align=left;verticalAlign=top;spacingLeft=4;spacingRight=4;overflow=hidden;rotatable=0;points=[[0,0.5],[1,0.5]];portConstraint=eastwest;rounded=0;shadow=0;html=0;" vertex="1" parent="zkfFHV4jXpPFQw0GAbJ--0">
          <mxGeometry y="572" width="360" height="26" as="geometry" />
        </mxCell>
        <mxCell id="ML5cCSZE7fHTFNNnrcKf-70" value="getter : getFilteredDestination" style="text;align=left;verticalAlign=top;spacingLeft=4;spacingRight=4;overflow=hidden;rotatable=0;points=[[0,0.5],[1,0.5]];portConstraint=eastwest;rounded=0;shadow=0;html=0;" vertex="1" parent="zkfFHV4jXpPFQw0GAbJ--0">
          <mxGeometry y="598" width="360" height="26" as="geometry" />
        </mxCell>
        <mxCell id="ML5cCSZE7fHTFNNnrcKf-71" value="setter : setFilteredDestination(Destination)" style="text;align=left;verticalAlign=top;spacingLeft=4;spacingRight=4;overflow=hidden;rotatable=0;points=[[0,0.5],[1,0.5]];portConstraint=eastwest;rounded=0;shadow=0;html=0;" vertex="1" parent="zkfFHV4jXpPFQw0GAbJ--0">
          <mxGeometry y="624" width="360" height="26" as="geometry" />
        </mxCell>
        <mxCell id="ML5cCSZE7fHTFNNnrcKf-72" value="method(void) : filterDestinationById(int)" style="text;align=left;verticalAlign=top;spacingLeft=4;spacingRight=4;overflow=hidden;rotatable=0;points=[[0,0.5],[1,0.5]];portConstraint=eastwest;rounded=0;shadow=0;html=0;" vertex="1" parent="zkfFHV4jXpPFQw0GAbJ--0">
          <mxGeometry y="650" width="360" height="26" as="geometry" />
        </mxCell>
        <mxCell id="ML5cCSZE7fHTFNNnrcKf-73" value="method(void) : printTravelPkgDetails" style="text;align=left;verticalAlign=top;spacingLeft=4;spacingRight=4;overflow=hidden;rotatable=0;points=[[0,0.5],[1,0.5]];portConstraint=eastwest;rounded=0;shadow=0;html=0;" vertex="1" parent="zkfFHV4jXpPFQw0GAbJ--0">
          <mxGeometry y="676" width="360" height="26" as="geometry" />
        </mxCell>
        <mxCell id="ML5cCSZE7fHTFNNnrcKf-10" value="Activity" style="swimlane;fontStyle=2;align=center;verticalAlign=top;childLayout=stackLayout;horizontal=1;startSize=26;horizontalStack=0;resizeParent=1;resizeLast=0;collapsible=1;marginBottom=0;rounded=0;shadow=0;strokeWidth=1;" vertex="1" parent="WIyWlLk6GJQsqaUBKTNV-1">
          <mxGeometry x="-660" y="-470" width="420" height="560" as="geometry">
            <mxRectangle x="230" y="140" width="160" height="26" as="alternateBounds" />
          </mxGeometry>
        </mxCell>
        <mxCell id="ML5cCSZE7fHTFNNnrcKf-11" value="field(int) : destinationID" style="text;align=left;verticalAlign=top;spacingLeft=4;spacingRight=4;overflow=hidden;rotatable=0;points=[[0,0.5],[1,0.5]];portConstraint=eastwest;" vertex="1" parent="ML5cCSZE7fHTFNNnrcKf-10">
          <mxGeometry y="26" width="420" height="26" as="geometry" />
        </mxCell>
        <mxCell id="ML5cCSZE7fHTFNNnrcKf-12" value="field(int) : activityID" style="text;align=left;verticalAlign=top;spacingLeft=4;spacingRight=4;overflow=hidden;rotatable=0;points=[[0,0.5],[1,0.5]];portConstraint=eastwest;rounded=0;shadow=0;html=0;" vertex="1" parent="ML5cCSZE7fHTFNNnrcKf-10">
          <mxGeometry y="52" width="420" height="26" as="geometry" />
        </mxCell>
        <mxCell id="ML5cCSZE7fHTFNNnrcKf-13" value="field(String) : activityName" style="text;align=left;verticalAlign=top;spacingLeft=4;spacingRight=4;overflow=hidden;rotatable=0;points=[[0,0.5],[1,0.5]];portConstraint=eastwest;rounded=0;shadow=0;html=0;" vertex="1" parent="ML5cCSZE7fHTFNNnrcKf-10">
          <mxGeometry y="78" width="420" height="26" as="geometry" />
        </mxCell>
        <mxCell id="ML5cCSZE7fHTFNNnrcKf-14" value="field(String) : activityDescription" style="text;align=left;verticalAlign=top;spacingLeft=4;spacingRight=4;overflow=hidden;rotatable=0;points=[[0,0.5],[1,0.5]];portConstraint=eastwest;rounded=0;shadow=0;html=0;" vertex="1" parent="ML5cCSZE7fHTFNNnrcKf-10">
          <mxGeometry y="104" width="420" height="26" as="geometry" />
        </mxCell>
        <mxCell id="ML5cCSZE7fHTFNNnrcKf-15" value="field(double) : activityCost" style="text;align=left;verticalAlign=top;spacingLeft=4;spacingRight=4;overflow=hidden;rotatable=0;points=[[0,0.5],[1,0.5]];portConstraint=eastwest;rounded=0;shadow=0;html=0;" vertex="1" parent="ML5cCSZE7fHTFNNnrcKf-10">
          <mxGeometry y="130" width="420" height="26" as="geometry" />
        </mxCell>
        <mxCell id="ML5cCSZE7fHTFNNnrcKf-16" value="field(int) : activityCapacity" style="text;align=left;verticalAlign=top;spacingLeft=4;spacingRight=4;overflow=hidden;rotatable=0;points=[[0,0.5],[1,0.5]];portConstraint=eastwest;rounded=0;shadow=0;html=0;" vertex="1" parent="ML5cCSZE7fHTFNNnrcKf-10">
          <mxGeometry y="156" width="420" height="26" as="geometry" />
        </mxCell>
        <mxCell id="ML5cCSZE7fHTFNNnrcKf-135" value="getter(int) : getActivityId" style="text;align=left;verticalAlign=top;spacingLeft=4;spacingRight=4;overflow=hidden;rotatable=0;points=[[0,0.5],[1,0.5]];portConstraint=eastwest;rounded=0;shadow=0;html=0;" vertex="1" parent="ML5cCSZE7fHTFNNnrcKf-10">
          <mxGeometry y="182" width="420" height="26" as="geometry" />
        </mxCell>
        <mxCell id="ML5cCSZE7fHTFNNnrcKf-136" value="setter(void) : getActivityId(int)" style="text;align=left;verticalAlign=top;spacingLeft=4;spacingRight=4;overflow=hidden;rotatable=0;points=[[0,0.5],[1,0.5]];portConstraint=eastwest;rounded=0;shadow=0;html=0;" vertex="1" parent="ML5cCSZE7fHTFNNnrcKf-10">
          <mxGeometry y="208" width="420" height="26" as="geometry" />
        </mxCell>
        <mxCell id="ML5cCSZE7fHTFNNnrcKf-137" value="getter(double) : getActivityCost" style="text;align=left;verticalAlign=top;spacingLeft=4;spacingRight=4;overflow=hidden;rotatable=0;points=[[0,0.5],[1,0.5]];portConstraint=eastwest;rounded=0;shadow=0;html=0;" vertex="1" parent="ML5cCSZE7fHTFNNnrcKf-10">
          <mxGeometry y="234" width="420" height="26" as="geometry" />
        </mxCell>
        <mxCell id="ML5cCSZE7fHTFNNnrcKf-138" value="setter(void) : getActivityCost(double)" style="text;align=left;verticalAlign=top;spacingLeft=4;spacingRight=4;overflow=hidden;rotatable=0;points=[[0,0.5],[1,0.5]];portConstraint=eastwest;rounded=0;shadow=0;html=0;" vertex="1" parent="ML5cCSZE7fHTFNNnrcKf-10">
          <mxGeometry y="260" width="420" height="26" as="geometry" />
        </mxCell>
        <mxCell id="ML5cCSZE7fHTFNNnrcKf-139" value="getter(int) : getActivityCapacity" style="text;align=left;verticalAlign=top;spacingLeft=4;spacingRight=4;overflow=hidden;rotatable=0;points=[[0,0.5],[1,0.5]];portConstraint=eastwest;rounded=0;shadow=0;html=0;" vertex="1" parent="ML5cCSZE7fHTFNNnrcKf-10">
          <mxGeometry y="286" width="420" height="26" as="geometry" />
        </mxCell>
        <mxCell id="ML5cCSZE7fHTFNNnrcKf-140" value="setter(void) : getActivityCapacity(int)" style="text;align=left;verticalAlign=top;spacingLeft=4;spacingRight=4;overflow=hidden;rotatable=0;points=[[0,0.5],[1,0.5]];portConstraint=eastwest;rounded=0;shadow=0;html=0;" vertex="1" parent="ML5cCSZE7fHTFNNnrcKf-10">
          <mxGeometry y="312" width="420" height="26" as="geometry" />
        </mxCell>
        <mxCell id="ML5cCSZE7fHTFNNnrcKf-141" value="getter(String) : getActivityName" style="text;align=left;verticalAlign=top;spacingLeft=4;spacingRight=4;overflow=hidden;rotatable=0;points=[[0,0.5],[1,0.5]];portConstraint=eastwest;rounded=0;shadow=0;html=0;" vertex="1" parent="ML5cCSZE7fHTFNNnrcKf-10">
          <mxGeometry y="338" width="420" height="26" as="geometry" />
        </mxCell>
        <mxCell id="ML5cCSZE7fHTFNNnrcKf-142" value="setter(void) : setActivityName(String)" style="text;align=left;verticalAlign=top;spacingLeft=4;spacingRight=4;overflow=hidden;rotatable=0;points=[[0,0.5],[1,0.5]];portConstraint=eastwest;rounded=0;shadow=0;html=0;" vertex="1" parent="ML5cCSZE7fHTFNNnrcKf-10">
          <mxGeometry y="364" width="420" height="26" as="geometry" />
        </mxCell>
        <mxCell id="ML5cCSZE7fHTFNNnrcKf-143" value="getter(String) : getActivityDescription" style="text;align=left;verticalAlign=top;spacingLeft=4;spacingRight=4;overflow=hidden;rotatable=0;points=[[0,0.5],[1,0.5]];portConstraint=eastwest;rounded=0;shadow=0;html=0;" vertex="1" parent="ML5cCSZE7fHTFNNnrcKf-10">
          <mxGeometry y="390" width="420" height="26" as="geometry" />
        </mxCell>
        <mxCell id="ML5cCSZE7fHTFNNnrcKf-144" value="setter(void) : setActivityDescription(String)" style="text;align=left;verticalAlign=top;spacingLeft=4;spacingRight=4;overflow=hidden;rotatable=0;points=[[0,0.5],[1,0.5]];portConstraint=eastwest;rounded=0;shadow=0;html=0;" vertex="1" parent="ML5cCSZE7fHTFNNnrcKf-10">
          <mxGeometry y="416" width="420" height="26" as="geometry" />
        </mxCell>
        <mxCell id="ML5cCSZE7fHTFNNnrcKf-145" value="method(boolean) : onActivitySubscription(TravelPackage, Activity, Passenger)%3CmxGraphModel%3E%3Croot%3E%3CmxCell%20id%3D%220%22%2F%3E%3CmxCell%20id%3D%221%22%20parent%3D%220%22%2F%3E%3CmxCell%20id%3D%222%22%20value%3D%22setter(void)%20%3A%20setActivityDescription(String)%22%20style%3D%22text%3Balign%3Dleft%3BverticalAlign%3Dtop%3BspacingLeft%3D4%3BspacingRight%3D4%3Boverflow%3Dhidden%3Brotatable%3D0%3Bpoints%3D%5B%5B0%2C0.5%5D%2C%5B1%2C0.5%5D%5D%3BportConstraint%3Deastwest%3Brounded%3D0%3Bshadow%3D0%3Bhtml%3D0%3B%22%20vertex%3D%221%22%20parent%3D%221%22%3E%3CmxGeometry%20x%3D%22120%22%20y%3D%222176%22%20width%3D%22420%22%20height%3D%2226%22%20as%3D%22geometry%22%2F%3E%3C%2FmxCell%3E%3C%2Froot%3E%3C%2FmxGraphModel%3E" style="text;align=left;verticalAlign=top;spacingLeft=4;spacingRight=4;overflow=hidden;rotatable=0;points=[[0,0.5],[1,0.5]];portConstraint=eastwest;rounded=0;shadow=0;html=0;" vertex="1" parent="ML5cCSZE7fHTFNNnrcKf-10">
          <mxGeometry y="442" width="420" height="26" as="geometry" />
        </mxCell>
        <mxCell id="ML5cCSZE7fHTFNNnrcKf-146" value="method(void) : printDestinationDetailsUsingTravelObj(TravelPackage)" style="text;align=left;verticalAlign=top;spacingLeft=4;spacingRight=4;overflow=hidden;rotatable=0;points=[[0,0.5],[1,0.5]];portConstraint=eastwest;rounded=0;shadow=0;html=0;" vertex="1" parent="ML5cCSZE7fHTFNNnrcKf-10">
          <mxGeometry y="468" width="420" height="26" as="geometry" />
        </mxCell>
        <mxCell id="ML5cCSZE7fHTFNNnrcKf-17" value="Passenger" style="swimlane;fontStyle=2;align=center;verticalAlign=top;childLayout=stackLayout;horizontal=1;startSize=26;horizontalStack=0;resizeParent=1;resizeLast=0;collapsible=1;marginBottom=0;rounded=0;shadow=0;strokeWidth=1;" vertex="1" parent="WIyWlLk6GJQsqaUBKTNV-1">
          <mxGeometry x="590" y="-920" width="630" height="840" as="geometry">
            <mxRectangle x="230" y="140" width="160" height="26" as="alternateBounds" />
          </mxGeometry>
        </mxCell>
        <mxCell id="ML5cCSZE7fHTFNNnrcKf-18" value="field(int) : destinationID" style="text;align=left;verticalAlign=top;spacingLeft=4;spacingRight=4;overflow=hidden;rotatable=0;points=[[0,0.5],[1,0.5]];portConstraint=eastwest;" vertex="1" parent="ML5cCSZE7fHTFNNnrcKf-17">
          <mxGeometry y="26" width="630" height="26" as="geometry" />
        </mxCell>
        <mxCell id="ML5cCSZE7fHTFNNnrcKf-19" value="field(int) : activityID" style="text;align=left;verticalAlign=top;spacingLeft=4;spacingRight=4;overflow=hidden;rotatable=0;points=[[0,0.5],[1,0.5]];portConstraint=eastwest;rounded=0;shadow=0;html=0;" vertex="1" parent="ML5cCSZE7fHTFNNnrcKf-17">
          <mxGeometry y="52" width="630" height="26" as="geometry" />
        </mxCell>
        <mxCell id="ML5cCSZE7fHTFNNnrcKf-20" value="field(int) : passengerID" style="text;align=left;verticalAlign=top;spacingLeft=4;spacingRight=4;overflow=hidden;rotatable=0;points=[[0,0.5],[1,0.5]];portConstraint=eastwest;rounded=0;shadow=0;html=0;" vertex="1" parent="ML5cCSZE7fHTFNNnrcKf-17">
          <mxGeometry y="78" width="630" height="26" as="geometry" />
        </mxCell>
        <mxCell id="ML5cCSZE7fHTFNNnrcKf-21" value="field(String) : passengerName" style="text;align=left;verticalAlign=top;spacingLeft=4;spacingRight=4;overflow=hidden;rotatable=0;points=[[0,0.5],[1,0.5]];portConstraint=eastwest;rounded=0;shadow=0;html=0;" vertex="1" parent="ML5cCSZE7fHTFNNnrcKf-17">
          <mxGeometry y="104" width="630" height="26" as="geometry" />
        </mxCell>
        <mxCell id="ML5cCSZE7fHTFNNnrcKf-22" value="field(double) : balance" style="text;align=left;verticalAlign=top;spacingLeft=4;spacingRight=4;overflow=hidden;rotatable=0;points=[[0,0.5],[1,0.5]];portConstraint=eastwest;rounded=0;shadow=0;html=0;" vertex="1" parent="ML5cCSZE7fHTFNNnrcKf-17">
          <mxGeometry y="130" width="630" height="26" as="geometry" />
        </mxCell>
        <mxCell id="ML5cCSZE7fHTFNNnrcKf-23" value="field(PassengerTypeEnum) : passengerType" style="text;align=left;verticalAlign=top;spacingLeft=4;spacingRight=4;overflow=hidden;rotatable=0;points=[[0,0.5],[1,0.5]];portConstraint=eastwest;rounded=0;shadow=0;html=0;" vertex="1" parent="ML5cCSZE7fHTFNNnrcKf-17">
          <mxGeometry y="156" width="630" height="24" as="geometry" />
        </mxCell>
        <mxCell id="ML5cCSZE7fHTFNNnrcKf-24" value="field(boolean) : isSubscribedToAnActivity" style="text;align=left;verticalAlign=top;spacingLeft=4;spacingRight=4;overflow=hidden;rotatable=0;points=[[0,0.5],[1,0.5]];portConstraint=eastwest;rounded=0;shadow=0;html=0;" vertex="1" parent="ML5cCSZE7fHTFNNnrcKf-17">
          <mxGeometry y="180" width="630" height="24" as="geometry" />
        </mxCell>
        <mxCell id="ML5cCSZE7fHTFNNnrcKf-76" value="field(List&lt;Activity&gt;) : subscribedActivityList" style="text;align=left;verticalAlign=top;spacingLeft=4;spacingRight=4;overflow=hidden;rotatable=0;points=[[0,0.5],[1,0.5]];portConstraint=eastwest;rounded=0;shadow=0;html=0;" vertex="1" parent="ML5cCSZE7fHTFNNnrcKf-17">
          <mxGeometry y="204" width="630" height="24" as="geometry" />
        </mxCell>
        <mxCell id="ML5cCSZE7fHTFNNnrcKf-78" value="getter(int) : getPassengerId" style="text;align=left;verticalAlign=top;spacingLeft=4;spacingRight=4;overflow=hidden;rotatable=0;points=[[0,0.5],[1,0.5]];portConstraint=eastwest;rounded=0;shadow=0;html=0;" vertex="1" parent="ML5cCSZE7fHTFNNnrcKf-17">
          <mxGeometry y="228" width="630" height="26" as="geometry" />
        </mxCell>
        <mxCell id="ML5cCSZE7fHTFNNnrcKf-77" value="setter(void) : setPassengerId(int)" style="text;align=left;verticalAlign=top;spacingLeft=4;spacingRight=4;overflow=hidden;rotatable=0;points=[[0,0.5],[1,0.5]];portConstraint=eastwest;rounded=0;shadow=0;html=0;" vertex="1" parent="ML5cCSZE7fHTFNNnrcKf-17">
          <mxGeometry y="254" width="630" height="26" as="geometry" />
        </mxCell>
        <mxCell id="ML5cCSZE7fHTFNNnrcKf-79" value="getter(int) : getActivityId" style="text;align=left;verticalAlign=top;spacingLeft=4;spacingRight=4;overflow=hidden;rotatable=0;points=[[0,0.5],[1,0.5]];portConstraint=eastwest;rounded=0;shadow=0;html=0;" vertex="1" parent="ML5cCSZE7fHTFNNnrcKf-17">
          <mxGeometry y="280" width="630" height="26" as="geometry" />
        </mxCell>
        <mxCell id="ML5cCSZE7fHTFNNnrcKf-80" value="setter(void) : setActivityId(int)" style="text;align=left;verticalAlign=top;spacingLeft=4;spacingRight=4;overflow=hidden;rotatable=0;points=[[0,0.5],[1,0.5]];portConstraint=eastwest;rounded=0;shadow=0;html=0;" vertex="1" parent="ML5cCSZE7fHTFNNnrcKf-17">
          <mxGeometry y="306" width="630" height="26" as="geometry" />
        </mxCell>
        <mxCell id="ML5cCSZE7fHTFNNnrcKf-81" value="getter(int) : getDestinationId" style="text;align=left;verticalAlign=top;spacingLeft=4;spacingRight=4;overflow=hidden;rotatable=0;points=[[0,0.5],[1,0.5]];portConstraint=eastwest;rounded=0;shadow=0;html=0;" vertex="1" parent="ML5cCSZE7fHTFNNnrcKf-17">
          <mxGeometry y="332" width="630" height="26" as="geometry" />
        </mxCell>
        <mxCell id="ML5cCSZE7fHTFNNnrcKf-82" value="setter(void) : setDestinationId(int)" style="text;align=left;verticalAlign=top;spacingLeft=4;spacingRight=4;overflow=hidden;rotatable=0;points=[[0,0.5],[1,0.5]];portConstraint=eastwest;rounded=0;shadow=0;html=0;" vertex="1" parent="ML5cCSZE7fHTFNNnrcKf-17">
          <mxGeometry y="358" width="630" height="26" as="geometry" />
        </mxCell>
        <mxCell id="ML5cCSZE7fHTFNNnrcKf-85" value="getter(double) : getBalance" style="text;align=left;verticalAlign=top;spacingLeft=4;spacingRight=4;overflow=hidden;rotatable=0;points=[[0,0.5],[1,0.5]];portConstraint=eastwest;rounded=0;shadow=0;html=0;" vertex="1" parent="ML5cCSZE7fHTFNNnrcKf-17">
          <mxGeometry y="384" width="630" height="26" as="geometry" />
        </mxCell>
        <mxCell id="ML5cCSZE7fHTFNNnrcKf-86" value="setter(void) : setBalance(double)" style="text;align=left;verticalAlign=top;spacingLeft=4;spacingRight=4;overflow=hidden;rotatable=0;points=[[0,0.5],[1,0.5]];portConstraint=eastwest;rounded=0;shadow=0;html=0;" vertex="1" parent="ML5cCSZE7fHTFNNnrcKf-17">
          <mxGeometry y="410" width="630" height="26" as="geometry" />
        </mxCell>
        <mxCell id="ML5cCSZE7fHTFNNnrcKf-87" value="method(void) : updateBalance(double)" style="text;align=left;verticalAlign=top;spacingLeft=4;spacingRight=4;overflow=hidden;rotatable=0;points=[[0,0.5],[1,0.5]];portConstraint=eastwest;rounded=0;shadow=0;html=0;" vertex="1" parent="ML5cCSZE7fHTFNNnrcKf-17">
          <mxGeometry y="436" width="630" height="26" as="geometry" />
        </mxCell>
        <mxCell id="ML5cCSZE7fHTFNNnrcKf-88" value="getter(String) : getPassengerName" style="text;align=left;verticalAlign=top;spacingLeft=4;spacingRight=4;overflow=hidden;rotatable=0;points=[[0,0.5],[1,0.5]];portConstraint=eastwest;rounded=0;shadow=0;html=0;" vertex="1" parent="ML5cCSZE7fHTFNNnrcKf-17">
          <mxGeometry y="462" width="630" height="26" as="geometry" />
        </mxCell>
        <mxCell id="ML5cCSZE7fHTFNNnrcKf-89" value="setter(void) : setPassengerName(String)" style="text;align=left;verticalAlign=top;spacingLeft=4;spacingRight=4;overflow=hidden;rotatable=0;points=[[0,0.5],[1,0.5]];portConstraint=eastwest;rounded=0;shadow=0;html=0;" vertex="1" parent="ML5cCSZE7fHTFNNnrcKf-17">
          <mxGeometry y="488" width="630" height="26" as="geometry" />
        </mxCell>
        <mxCell id="ML5cCSZE7fHTFNNnrcKf-90" value="getter(PassengerTypeEnum) : getPassengerType" style="text;align=left;verticalAlign=top;spacingLeft=4;spacingRight=4;overflow=hidden;rotatable=0;points=[[0,0.5],[1,0.5]];portConstraint=eastwest;rounded=0;shadow=0;html=0;" vertex="1" parent="ML5cCSZE7fHTFNNnrcKf-17">
          <mxGeometry y="514" width="630" height="26" as="geometry" />
        </mxCell>
        <mxCell id="ML5cCSZE7fHTFNNnrcKf-91" value="setter(void) : setPassengerType(int)" style="text;align=left;verticalAlign=top;spacingLeft=4;spacingRight=4;overflow=hidden;rotatable=0;points=[[0,0.5],[1,0.5]];portConstraint=eastwest;rounded=0;shadow=0;html=0;" vertex="1" parent="ML5cCSZE7fHTFNNnrcKf-17">
          <mxGeometry y="540" width="630" height="26" as="geometry" />
        </mxCell>
        <mxCell id="ML5cCSZE7fHTFNNnrcKf-94" value="getter(boolean) : getIsSubscribedToAnActivity" style="text;align=left;verticalAlign=top;spacingLeft=4;spacingRight=4;overflow=hidden;rotatable=0;points=[[0,0.5],[1,0.5]];portConstraint=eastwest;rounded=0;shadow=0;html=0;" vertex="1" parent="ML5cCSZE7fHTFNNnrcKf-17">
          <mxGeometry y="566" width="630" height="26" as="geometry" />
        </mxCell>
        <mxCell id="ML5cCSZE7fHTFNNnrcKf-95" value="setter(void) : setIsSubscribedToAnActivity(boolean)" style="text;align=left;verticalAlign=top;spacingLeft=4;spacingRight=4;overflow=hidden;rotatable=0;points=[[0,0.5],[1,0.5]];portConstraint=eastwest;rounded=0;shadow=0;html=0;" vertex="1" parent="ML5cCSZE7fHTFNNnrcKf-17">
          <mxGeometry y="592" width="630" height="26" as="geometry" />
        </mxCell>
        <mxCell id="ML5cCSZE7fHTFNNnrcKf-96" value="getter(List&lt;Activity&gt;) : getSubscribedActivityList" style="text;align=left;verticalAlign=top;spacingLeft=4;spacingRight=4;overflow=hidden;rotatable=0;points=[[0,0.5],[1,0.5]];portConstraint=eastwest;rounded=0;shadow=0;html=0;" vertex="1" parent="ML5cCSZE7fHTFNNnrcKf-17">
          <mxGeometry y="618" width="630" height="26" as="geometry" />
        </mxCell>
        <mxCell id="ML5cCSZE7fHTFNNnrcKf-97" value="method(void) : addActivityInList(Activity)" style="text;align=left;verticalAlign=top;spacingLeft=4;spacingRight=4;overflow=hidden;rotatable=0;points=[[0,0.5],[1,0.5]];portConstraint=eastwest;rounded=0;shadow=0;html=0;" vertex="1" parent="ML5cCSZE7fHTFNNnrcKf-17">
          <mxGeometry y="644" width="630" height="26" as="geometry" />
        </mxCell>
        <mxCell id="ML5cCSZE7fHTFNNnrcKf-98" value="method(boolean) : isPassengerAllowedForSubscription(Activity, TravelPackage, PassengerTypeEnum, double)" style="text;align=left;verticalAlign=top;spacingLeft=4;spacingRight=4;overflow=hidden;rotatable=0;points=[[0,0.5],[1,0.5]];portConstraint=eastwest;rounded=0;shadow=0;html=0;" vertex="1" parent="ML5cCSZE7fHTFNNnrcKf-17">
          <mxGeometry y="670" width="630" height="26" as="geometry" />
        </mxCell>
        <mxCell id="ML5cCSZE7fHTFNNnrcKf-99" value="method(boolean) : subscribePassenger(Activity, TravelPackage)" style="text;align=left;verticalAlign=top;spacingLeft=4;spacingRight=4;overflow=hidden;rotatable=0;points=[[0,0.5],[1,0.5]];portConstraint=eastwest;rounded=0;shadow=0;html=0;" vertex="1" parent="ML5cCSZE7fHTFNNnrcKf-17">
          <mxGeometry y="696" width="630" height="26" as="geometry" />
        </mxCell>
        <mxCell id="ML5cCSZE7fHTFNNnrcKf-100" value="method(String) : getPassengerType(PassengerTypeEnum)" style="text;align=left;verticalAlign=top;spacingLeft=4;spacingRight=4;overflow=hidden;rotatable=0;points=[[0,0.5],[1,0.5]];portConstraint=eastwest;rounded=0;shadow=0;html=0;" vertex="1" parent="ML5cCSZE7fHTFNNnrcKf-17">
          <mxGeometry y="722" width="630" height="26" as="geometry" />
        </mxCell>
        <mxCell id="ML5cCSZE7fHTFNNnrcKf-101" value="method(void) : PrintPassengerDetails(Passenger,TravelPackage)" style="text;align=left;verticalAlign=top;spacingLeft=4;spacingRight=4;overflow=hidden;rotatable=0;points=[[0,0.5],[1,0.5]];portConstraint=eastwest;rounded=0;shadow=0;html=0;" vertex="1" parent="ML5cCSZE7fHTFNNnrcKf-17">
          <mxGeometry y="748" width="630" height="26" as="geometry" />
        </mxCell>
        <mxCell id="ML5cCSZE7fHTFNNnrcKf-26" value="PassengerType" style="swimlane;fontStyle=2;align=center;verticalAlign=top;childLayout=stackLayout;horizontal=1;startSize=26;horizontalStack=0;resizeParent=1;resizeLast=0;collapsible=1;marginBottom=0;rounded=0;shadow=0;strokeWidth=1;" vertex="1" parent="WIyWlLk6GJQsqaUBKTNV-1">
          <mxGeometry x="1350" y="-388" width="270" height="220" as="geometry">
            <mxRectangle x="230" y="140" width="160" height="26" as="alternateBounds" />
          </mxGeometry>
        </mxCell>
        <mxCell id="ML5cCSZE7fHTFNNnrcKf-27" value="field(PassengerTypeEnum) : standard" style="text;align=left;verticalAlign=top;spacingLeft=4;spacingRight=4;overflow=hidden;rotatable=0;points=[[0,0.5],[1,0.5]];portConstraint=eastwest;" vertex="1" parent="ML5cCSZE7fHTFNNnrcKf-26">
          <mxGeometry y="26" width="270" height="26" as="geometry" />
        </mxCell>
        <mxCell id="ML5cCSZE7fHTFNNnrcKf-28" value="field(PassengerTypeEnum) : gold" style="text;align=left;verticalAlign=top;spacingLeft=4;spacingRight=4;overflow=hidden;rotatable=0;points=[[0,0.5],[1,0.5]];portConstraint=eastwest;rounded=0;shadow=0;html=0;" vertex="1" parent="ML5cCSZE7fHTFNNnrcKf-26">
          <mxGeometry y="52" width="270" height="26" as="geometry" />
        </mxCell>
        <mxCell id="ML5cCSZE7fHTFNNnrcKf-29" value="field(PassengerTypeEnum) : premium" style="text;align=left;verticalAlign=top;spacingLeft=4;spacingRight=4;overflow=hidden;rotatable=0;points=[[0,0.5],[1,0.5]];portConstraint=eastwest;rounded=0;shadow=0;html=0;" vertex="1" parent="ML5cCSZE7fHTFNNnrcKf-26">
          <mxGeometry y="78" width="270" height="26" as="geometry" />
        </mxCell>
        <mxCell id="ML5cCSZE7fHTFNNnrcKf-102" value="Destination" style="swimlane;fontStyle=2;align=center;verticalAlign=top;childLayout=stackLayout;horizontal=1;startSize=26;horizontalStack=0;resizeParent=1;resizeLast=0;collapsible=1;marginBottom=0;rounded=0;shadow=0;strokeWidth=1;" vertex="1" parent="WIyWlLk6GJQsqaUBKTNV-1">
          <mxGeometry x="-690" y="-950" width="380" height="330" as="geometry">
            <mxRectangle x="230" y="140" width="160" height="26" as="alternateBounds" />
          </mxGeometry>
        </mxCell>
        <mxCell id="ML5cCSZE7fHTFNNnrcKf-103" value="field(int) : destinationId" style="text;align=left;verticalAlign=top;spacingLeft=4;spacingRight=4;overflow=hidden;rotatable=0;points=[[0,0.5],[1,0.5]];portConstraint=eastwest;" vertex="1" parent="ML5cCSZE7fHTFNNnrcKf-102">
          <mxGeometry y="26" width="380" height="26" as="geometry" />
        </mxCell>
        <mxCell id="ML5cCSZE7fHTFNNnrcKf-104" value="field(String) : destinationName" style="text;align=left;verticalAlign=top;spacingLeft=4;spacingRight=4;overflow=hidden;rotatable=0;points=[[0,0.5],[1,0.5]];portConstraint=eastwest;rounded=0;shadow=0;html=0;" vertex="1" parent="ML5cCSZE7fHTFNNnrcKf-102">
          <mxGeometry y="52" width="380" height="26" as="geometry" />
        </mxCell>
        <mxCell id="ML5cCSZE7fHTFNNnrcKf-105" value="field(List&lt;Activity&gt;) : activityList" style="text;align=left;verticalAlign=top;spacingLeft=4;spacingRight=4;overflow=hidden;rotatable=0;points=[[0,0.5],[1,0.5]];portConstraint=eastwest;rounded=0;shadow=0;html=0;" vertex="1" parent="ML5cCSZE7fHTFNNnrcKf-102">
          <mxGeometry y="78" width="380" height="26" as="geometry" />
        </mxCell>
        <mxCell id="ML5cCSZE7fHTFNNnrcKf-109" value="getter(int) : getDestinationId" style="text;align=left;verticalAlign=top;spacingLeft=4;spacingRight=4;overflow=hidden;rotatable=0;points=[[0,0.5],[1,0.5]];portConstraint=eastwest;rounded=0;shadow=0;html=0;" vertex="1" parent="ML5cCSZE7fHTFNNnrcKf-102">
          <mxGeometry y="104" width="380" height="26" as="geometry" />
        </mxCell>
        <mxCell id="ML5cCSZE7fHTFNNnrcKf-110" value="setter : setDestinationId(int)" style="text;align=left;verticalAlign=top;spacingLeft=4;spacingRight=4;overflow=hidden;rotatable=0;points=[[0,0.5],[1,0.5]];portConstraint=eastwest;rounded=0;shadow=0;html=0;" vertex="1" parent="ML5cCSZE7fHTFNNnrcKf-102">
          <mxGeometry y="130" width="380" height="26" as="geometry" />
        </mxCell>
        <mxCell id="ML5cCSZE7fHTFNNnrcKf-129" value="getter(String) : getDestinationName" style="text;align=left;verticalAlign=top;spacingLeft=4;spacingRight=4;overflow=hidden;rotatable=0;points=[[0,0.5],[1,0.5]];portConstraint=eastwest;rounded=0;shadow=0;html=0;" vertex="1" parent="ML5cCSZE7fHTFNNnrcKf-102">
          <mxGeometry y="156" width="380" height="26" as="geometry" />
        </mxCell>
        <mxCell id="ML5cCSZE7fHTFNNnrcKf-130" value="setter : setDestinationName(String)" style="text;align=left;verticalAlign=top;spacingLeft=4;spacingRight=4;overflow=hidden;rotatable=0;points=[[0,0.5],[1,0.5]];portConstraint=eastwest;rounded=0;shadow=0;html=0;" vertex="1" parent="ML5cCSZE7fHTFNNnrcKf-102">
          <mxGeometry y="182" width="380" height="26" as="geometry" />
        </mxCell>
        <mxCell id="ML5cCSZE7fHTFNNnrcKf-131" value="getter(List&lt;Activity&gt;) : getActivityLiist" style="text;align=left;verticalAlign=top;spacingLeft=4;spacingRight=4;overflow=hidden;rotatable=0;points=[[0,0.5],[1,0.5]];portConstraint=eastwest;rounded=0;shadow=0;html=0;" vertex="1" parent="ML5cCSZE7fHTFNNnrcKf-102">
          <mxGeometry y="208" width="380" height="26" as="geometry" />
        </mxCell>
        <mxCell id="ML5cCSZE7fHTFNNnrcKf-132" value="method(Activity) : getActivityByIdFromActivityList(int)" style="text;align=left;verticalAlign=top;spacingLeft=4;spacingRight=4;overflow=hidden;rotatable=0;points=[[0,0.5],[1,0.5]];portConstraint=eastwest;rounded=0;shadow=0;html=0;" vertex="1" parent="ML5cCSZE7fHTFNNnrcKf-102">
          <mxGeometry y="234" width="380" height="26" as="geometry" />
        </mxCell>
        <mxCell id="ML5cCSZE7fHTFNNnrcKf-133" value="method(void) : addActivityInList(iActivity)" style="text;align=left;verticalAlign=top;spacingLeft=4;spacingRight=4;overflow=hidden;rotatable=0;points=[[0,0.5],[1,0.5]];portConstraint=eastwest;rounded=0;shadow=0;html=0;" vertex="1" parent="ML5cCSZE7fHTFNNnrcKf-102">
          <mxGeometry y="260" width="380" height="26" as="geometry" />
        </mxCell>
        <mxCell id="ML5cCSZE7fHTFNNnrcKf-134" value="method(void) : printDestinationDetails(iDestination, TravelPackage)" style="text;align=left;verticalAlign=top;spacingLeft=4;spacingRight=4;overflow=hidden;rotatable=0;points=[[0,0.5],[1,0.5]];portConstraint=eastwest;rounded=0;shadow=0;html=0;" vertex="1" parent="ML5cCSZE7fHTFNNnrcKf-102">
          <mxGeometry y="286" width="380" height="26" as="geometry" />
        </mxCell>
        <mxCell id="ML5cCSZE7fHTFNNnrcKf-147" value="AddPassengerInList" style="endArrow=block;endFill=1;html=1;edgeStyle=orthogonalEdgeStyle;align=left;verticalAlign=top;rounded=0;exitX=-0.008;exitY=0.021;exitDx=0;exitDy=0;exitPerimeter=0;" edge="1" parent="WIyWlLk6GJQsqaUBKTNV-1" source="ML5cCSZE7fHTFNNnrcKf-17" target="ML5cCSZE7fHTFNNnrcKf-66">
          <mxGeometry x="-0.0871" y="-65" relative="1" as="geometry">
            <mxPoint x="570" y="-899" as="sourcePoint" />
            <mxPoint x="520" y="-500" as="targetPoint" />
            <mxPoint as="offset" />
          </mxGeometry>
        </mxCell>
        <mxCell id="ML5cCSZE7fHTFNNnrcKf-148" value="1" style="edgeLabel;resizable=0;html=1;align=left;verticalAlign=bottom;" connectable="0" vertex="1" parent="ML5cCSZE7fHTFNNnrcKf-147">
          <mxGeometry x="-1" relative="1" as="geometry" />
        </mxCell>
        <mxCell id="ML5cCSZE7fHTFNNnrcKf-149" value="AddSubscribedPassengerInList" style="endArrow=block;endFill=1;html=1;edgeStyle=orthogonalEdgeStyle;align=left;verticalAlign=top;rounded=0;" edge="1" parent="WIyWlLk6GJQsqaUBKTNV-1">
          <mxGeometry x="0.9368" y="50" relative="1" as="geometry">
            <mxPoint x="580" y="-870" as="sourcePoint" />
            <mxPoint x="390" y="-370" as="targetPoint" />
            <mxPoint as="offset" />
            <Array as="points">
              <mxPoint x="580" y="-850" />
              <mxPoint x="550" y="-850" />
              <mxPoint x="550" y="-240" />
              <mxPoint x="470" y="-240" />
              <mxPoint x="470" y="-370" />
            </Array>
          </mxGeometry>
        </mxCell>
        <mxCell id="ML5cCSZE7fHTFNNnrcKf-150" value="1" style="edgeLabel;resizable=0;html=1;align=left;verticalAlign=bottom;" connectable="0" vertex="1" parent="ML5cCSZE7fHTFNNnrcKf-149">
          <mxGeometry x="-1" relative="1" as="geometry" />
        </mxCell>
        <mxCell id="ML5cCSZE7fHTFNNnrcKf-156" value="Set Passenger Type" style="html=1;verticalAlign=bottom;startArrow=oval;startFill=1;endArrow=block;startSize=8;curved=0;rounded=0;exitX=-0.004;exitY=-0.115;exitDx=0;exitDy=0;exitPerimeter=0;entryX=1.003;entryY=0.808;entryDx=0;entryDy=0;entryPerimeter=0;" edge="1" parent="WIyWlLk6GJQsqaUBKTNV-1" source="ML5cCSZE7fHTFNNnrcKf-27" target="ML5cCSZE7fHTFNNnrcKf-91">
          <mxGeometry width="60" relative="1" as="geometry">
            <mxPoint x="1280" y="20" as="sourcePoint" />
            <mxPoint x="1270" y="-90" as="targetPoint" />
          </mxGeometry>
        </mxCell>
        <mxCell id="ML5cCSZE7fHTFNNnrcKf-157" value="&lt;font style=&quot;font-size: 35px;&quot;&gt;&lt;b&gt;High Level UML Diagram&lt;/b&gt;&lt;/font&gt;" style="text;html=1;align=center;verticalAlign=middle;whiteSpace=wrap;rounded=0;" vertex="1" parent="WIyWlLk6GJQsqaUBKTNV-1">
          <mxGeometry x="300" y="-1140" width="630" height="180" as="geometry" />
        </mxCell>
        <mxCell id="ML5cCSZE7fHTFNNnrcKf-151" value="Add Destination in Destination list" style="endArrow=block;endFill=1;html=1;edgeStyle=orthogonalEdgeStyle;align=left;verticalAlign=top;rounded=0;entryX=0;entryY=0.5;entryDx=0;entryDy=0;" edge="1" parent="WIyWlLk6GJQsqaUBKTNV-1" target="ML5cCSZE7fHTFNNnrcKf-63">
          <mxGeometry x="0.3064" y="-30" relative="1" as="geometry">
            <mxPoint x="-300" y="-910" as="sourcePoint" />
            <mxPoint x="-80" y="-470" as="targetPoint" />
            <mxPoint as="offset" />
            <Array as="points">
              <mxPoint x="-170" y="-914" />
              <mxPoint x="-170" y="-475" />
            </Array>
          </mxGeometry>
        </mxCell>
        <mxCell id="ML5cCSZE7fHTFNNnrcKf-152" value="1" style="edgeLabel;resizable=0;html=1;align=left;verticalAlign=bottom;" connectable="0" vertex="1" parent="ML5cCSZE7fHTFNNnrcKf-151">
          <mxGeometry x="-1" relative="1" as="geometry" />
        </mxCell>
        <mxCell id="ML5cCSZE7fHTFNNnrcKf-154" value="Add Activity in list" style="endArrow=block;endFill=1;html=1;edgeStyle=orthogonalEdgeStyle;align=left;verticalAlign=top;rounded=0;entryX=0;entryY=0.5;entryDx=0;entryDy=0;exitX=0;exitY=0.5;exitDx=0;exitDy=0;" edge="1" parent="WIyWlLk6GJQsqaUBKTNV-1" source="ML5cCSZE7fHTFNNnrcKf-13" target="ML5cCSZE7fHTFNNnrcKf-133">
          <mxGeometry x="0.0676" y="10" relative="1" as="geometry">
            <mxPoint x="-710" y="-400" as="sourcePoint" />
            <mxPoint x="-780" y="-710" as="targetPoint" />
            <Array as="points">
              <mxPoint x="-710" y="-389" />
              <mxPoint x="-780" y="-390" />
              <mxPoint x="-780" y="-641" />
            </Array>
            <mxPoint y="-1" as="offset" />
          </mxGeometry>
        </mxCell>
        <mxCell id="ML5cCSZE7fHTFNNnrcKf-155" value="1" style="edgeLabel;resizable=0;html=1;align=left;verticalAlign=bottom;" connectable="0" vertex="1" parent="ML5cCSZE7fHTFNNnrcKf-154">
          <mxGeometry x="-1" relative="1" as="geometry" />
        </mxCell>
        <mxCell id="ML5cCSZE7fHTFNNnrcKf-159" value="HandleTravelPackageDetails" style="swimlane;fontStyle=2;align=center;verticalAlign=top;childLayout=stackLayout;horizontal=1;startSize=26;horizontalStack=0;resizeParent=1;resizeLast=0;collapsible=1;marginBottom=0;rounded=0;shadow=0;strokeWidth=1;" vertex="1" parent="WIyWlLk6GJQsqaUBKTNV-1">
          <mxGeometry x="-1050" y="640" width="360" height="90" as="geometry">
            <mxRectangle x="230" y="140" width="160" height="26" as="alternateBounds" />
          </mxGeometry>
        </mxCell>
        <mxCell id="ML5cCSZE7fHTFNNnrcKf-180" value="method(void) : setupTravelPackageDetails(TravelPackage)" style="text;align=left;verticalAlign=top;spacingLeft=4;spacingRight=4;overflow=hidden;rotatable=0;points=[[0,0.5],[1,0.5]];portConstraint=eastwest;rounded=0;shadow=0;html=0;" vertex="1" parent="ML5cCSZE7fHTFNNnrcKf-159">
          <mxGeometry y="26" width="360" height="26" as="geometry" />
        </mxCell>
        <mxCell id="ML5cCSZE7fHTFNNnrcKf-186" value="HandleTravelPackageDetails" style="swimlane;fontStyle=2;align=center;verticalAlign=top;childLayout=stackLayout;horizontal=1;startSize=26;horizontalStack=0;resizeParent=1;resizeLast=0;collapsible=1;marginBottom=0;rounded=0;shadow=0;strokeWidth=1;" vertex="1" parent="WIyWlLk6GJQsqaUBKTNV-1">
          <mxGeometry x="-1060" y="810" width="360" height="104" as="geometry">
            <mxRectangle x="230" y="140" width="160" height="26" as="alternateBounds" />
          </mxGeometry>
        </mxCell>
        <mxCell id="ML5cCSZE7fHTFNNnrcKf-187" value="method(void) : travelPackage.setTravelPackageid(int)" style="text;align=left;verticalAlign=top;spacingLeft=4;spacingRight=4;overflow=hidden;rotatable=0;points=[[0,0.5],[1,0.5]];portConstraint=eastwest;rounded=0;shadow=0;html=0;" vertex="1" parent="ML5cCSZE7fHTFNNnrcKf-186">
          <mxGeometry y="26" width="360" height="26" as="geometry" />
        </mxCell>
        <mxCell id="ML5cCSZE7fHTFNNnrcKf-188" value="method(void) : travelPackage.setTravelPackageName(String)" style="text;align=left;verticalAlign=top;spacingLeft=4;spacingRight=4;overflow=hidden;rotatable=0;points=[[0,0.5],[1,0.5]];portConstraint=eastwest;rounded=0;shadow=0;html=0;" vertex="1" parent="ML5cCSZE7fHTFNNnrcKf-186">
          <mxGeometry y="52" width="360" height="26" as="geometry" />
        </mxCell>
        <mxCell id="ML5cCSZE7fHTFNNnrcKf-189" value="method(void) : travelPackage.setTravelPackageCapacity(iint)" style="text;align=left;verticalAlign=top;spacingLeft=4;spacingRight=4;overflow=hidden;rotatable=0;points=[[0,0.5],[1,0.5]];portConstraint=eastwest;rounded=0;shadow=0;html=0;" vertex="1" parent="ML5cCSZE7fHTFNNnrcKf-186">
          <mxGeometry y="78" width="360" height="26" as="geometry" />
        </mxCell>
        <mxCell id="ML5cCSZE7fHTFNNnrcKf-192" value="HandleDestinationDetails" style="swimlane;fontStyle=2;align=center;verticalAlign=top;childLayout=stackLayout;horizontal=1;startSize=26;horizontalStack=0;resizeParent=1;resizeLast=0;collapsible=1;marginBottom=0;rounded=0;shadow=0;strokeWidth=1;" vertex="1" parent="WIyWlLk6GJQsqaUBKTNV-1">
          <mxGeometry x="-530" y="640" width="360" height="90" as="geometry">
            <mxRectangle x="230" y="140" width="160" height="26" as="alternateBounds" />
          </mxGeometry>
        </mxCell>
        <mxCell id="ML5cCSZE7fHTFNNnrcKf-193" value="method(void) : setupDestinationDetails(TravelPackage)" style="text;align=left;verticalAlign=top;spacingLeft=4;spacingRight=4;overflow=hidden;rotatable=0;points=[[0,0.5],[1,0.5]];portConstraint=eastwest;rounded=0;shadow=0;html=0;" vertex="1" parent="ML5cCSZE7fHTFNNnrcKf-192">
          <mxGeometry y="26" width="360" height="26" as="geometry" />
        </mxCell>
        <mxCell id="ML5cCSZE7fHTFNNnrcKf-194" value="HandleDestinationDetails" style="swimlane;fontStyle=2;align=center;verticalAlign=top;childLayout=stackLayout;horizontal=1;startSize=26;horizontalStack=0;resizeParent=1;resizeLast=0;collapsible=1;marginBottom=0;rounded=0;shadow=0;strokeWidth=1;" vertex="1" parent="WIyWlLk6GJQsqaUBKTNV-1">
          <mxGeometry x="-540" y="810" width="360" height="104" as="geometry">
            <mxRectangle x="230" y="140" width="160" height="26" as="alternateBounds" />
          </mxGeometry>
        </mxCell>
        <mxCell id="ML5cCSZE7fHTFNNnrcKf-195" value="method(void) : destination.setDestinationId(int)" style="text;align=left;verticalAlign=top;spacingLeft=4;spacingRight=4;overflow=hidden;rotatable=0;points=[[0,0.5],[1,0.5]];portConstraint=eastwest;rounded=0;shadow=0;html=0;" vertex="1" parent="ML5cCSZE7fHTFNNnrcKf-194">
          <mxGeometry y="26" width="360" height="26" as="geometry" />
        </mxCell>
        <mxCell id="ML5cCSZE7fHTFNNnrcKf-204" value="method(void) : destination.setDestinationName(String)" style="text;align=left;verticalAlign=top;spacingLeft=4;spacingRight=4;overflow=hidden;rotatable=0;points=[[0,0.5],[1,0.5]];portConstraint=eastwest;rounded=0;shadow=0;html=0;" vertex="1" parent="ML5cCSZE7fHTFNNnrcKf-194">
          <mxGeometry y="52" width="360" height="26" as="geometry" />
        </mxCell>
        <mxCell id="ML5cCSZE7fHTFNNnrcKf-200" value="name" style="endArrow=block;endFill=1;html=1;edgeStyle=orthogonalEdgeStyle;align=left;verticalAlign=top;rounded=0;entryX=1;entryY=0.5;entryDx=0;entryDy=0;" edge="1" parent="WIyWlLk6GJQsqaUBKTNV-1" target="ML5cCSZE7fHTFNNnrcKf-205">
          <mxGeometry x="-1" y="-361" relative="1" as="geometry">
            <mxPoint x="-180" y="900" as="sourcePoint" />
            <mxPoint x="-320" y="990" as="targetPoint" />
            <Array as="points">
              <mxPoint x="-180" y="901" />
              <mxPoint x="-110" y="901" />
              <mxPoint x="-110" y="990" />
            </Array>
            <mxPoint x="-350" y="-271" as="offset" />
          </mxGeometry>
        </mxCell>
        <mxCell id="ML5cCSZE7fHTFNNnrcKf-201" value="calls itself 3 times to add 3 destinations" style="edgeLabel;resizable=0;html=1;align=left;verticalAlign=bottom;" connectable="0" vertex="1" parent="ML5cCSZE7fHTFNNnrcKf-200">
          <mxGeometry x="-1" relative="1" as="geometry">
            <mxPoint x="20" y="90" as="offset" />
          </mxGeometry>
        </mxCell>
        <mxCell id="ML5cCSZE7fHTFNNnrcKf-202" value="new Dstintaion object in each iteration" style="edgeLabel;resizable=0;html=1;align=left;verticalAlign=bottom;" connectable="0" vertex="1" parent="WIyWlLk6GJQsqaUBKTNV-1">
          <mxGeometry x="-570" y="970" as="geometry" />
        </mxCell>
        <mxCell id="ML5cCSZE7fHTFNNnrcKf-205" value="loop ended" style="rhombus;whiteSpace=wrap;html=1;fontColor=#000000;fillColor=#ffffc0;strokeColor=#ff0000;" vertex="1" parent="WIyWlLk6GJQsqaUBKTNV-1">
          <mxGeometry x="-430" y="970" width="120" height="70" as="geometry" />
        </mxCell>
        <mxCell id="ML5cCSZE7fHTFNNnrcKf-206" value="no" style="edgeStyle=orthogonalEdgeStyle;html=1;align=left;verticalAlign=bottom;endArrow=open;endSize=8;strokeColor=#ff0000;rounded=0;" edge="1" source="ML5cCSZE7fHTFNNnrcKf-205" parent="WIyWlLk6GJQsqaUBKTNV-1">
          <mxGeometry x="-0.4222" y="31" relative="1" as="geometry">
            <mxPoint x="-470" y="920" as="targetPoint" />
            <Array as="points">
              <mxPoint x="-469" y="1005" />
              <mxPoint x="-469" y="970" />
            </Array>
            <mxPoint y="5" as="offset" />
          </mxGeometry>
        </mxCell>
        <mxCell id="ML5cCSZE7fHTFNNnrcKf-207" value="yes" style="edgeStyle=orthogonalEdgeStyle;html=1;align=left;verticalAlign=top;endArrow=open;endSize=8;strokeColor=#ff0000;rounded=0;" edge="1" source="ML5cCSZE7fHTFNNnrcKf-205" parent="WIyWlLk6GJQsqaUBKTNV-1">
          <mxGeometry x="-0.2227" y="15" relative="1" as="geometry">
            <mxPoint x="-450" y="1120" as="targetPoint" />
            <Array as="points">
              <mxPoint x="-450" y="1040" />
              <mxPoint x="-450" y="1120" />
            </Array>
            <mxPoint as="offset" />
          </mxGeometry>
        </mxCell>
        <mxCell id="ML5cCSZE7fHTFNNnrcKf-208" value="HandleDestinationDetails" style="swimlane;fontStyle=2;align=center;verticalAlign=top;childLayout=stackLayout;horizontal=1;startSize=26;horizontalStack=0;resizeParent=1;resizeLast=0;collapsible=1;marginBottom=0;rounded=0;shadow=0;strokeWidth=1;" vertex="1" parent="WIyWlLk6GJQsqaUBKTNV-1">
          <mxGeometry x="-610" y="1120" width="460" height="104" as="geometry">
            <mxRectangle x="230" y="140" width="160" height="26" as="alternateBounds" />
          </mxGeometry>
        </mxCell>
        <mxCell id="ML5cCSZE7fHTFNNnrcKf-209" value="Add in destinationList(List&lt;Destination&gt; and return it to caller function" style="text;align=left;verticalAlign=top;spacingLeft=4;spacingRight=4;overflow=hidden;rotatable=0;points=[[0,0.5],[1,0.5]];portConstraint=eastwest;rounded=0;shadow=0;html=0;" vertex="1" parent="ML5cCSZE7fHTFNNnrcKf-208">
          <mxGeometry y="26" width="460" height="26" as="geometry" />
        </mxCell>
        <mxCell id="ML5cCSZE7fHTFNNnrcKf-211" style="edgeStyle=orthogonalEdgeStyle;rounded=0;orthogonalLoop=1;jettySize=auto;html=1;exitX=0;exitY=0.5;exitDx=0;exitDy=0;entryX=-0.003;entryY=0.135;entryDx=0;entryDy=0;entryPerimeter=0;" edge="1" parent="WIyWlLk6GJQsqaUBKTNV-1" source="ML5cCSZE7fHTFNNnrcKf-180" target="ML5cCSZE7fHTFNNnrcKf-186">
          <mxGeometry relative="1" as="geometry">
            <mxPoint x="-1140" y="830" as="targetPoint" />
            <Array as="points">
              <mxPoint x="-1130" y="679" />
              <mxPoint x="-1130" y="824" />
            </Array>
          </mxGeometry>
        </mxCell>
        <mxCell id="ML5cCSZE7fHTFNNnrcKf-212" style="edgeStyle=orthogonalEdgeStyle;rounded=0;orthogonalLoop=1;jettySize=auto;html=1;exitX=1;exitY=0.25;exitDx=0;exitDy=0;entryX=1;entryY=0.077;entryDx=0;entryDy=0;entryPerimeter=0;" edge="1" parent="WIyWlLk6GJQsqaUBKTNV-1" source="ML5cCSZE7fHTFNNnrcKf-192" target="ML5cCSZE7fHTFNNnrcKf-194">
          <mxGeometry relative="1" as="geometry" />
        </mxCell>
        <mxCell id="ML5cCSZE7fHTFNNnrcKf-213" value="Main.java" style="swimlane;fontStyle=2;align=center;verticalAlign=top;childLayout=stackLayout;horizontal=1;startSize=26;horizontalStack=0;resizeParent=1;resizeLast=0;collapsible=1;marginBottom=0;rounded=0;shadow=0;strokeWidth=1;" vertex="1" parent="WIyWlLk6GJQsqaUBKTNV-1">
          <mxGeometry x="80" y="640" width="360" height="120" as="geometry">
            <mxRectangle x="230" y="140" width="160" height="26" as="alternateBounds" />
          </mxGeometry>
        </mxCell>
        <mxCell id="ML5cCSZE7fHTFNNnrcKf-227" style="edgeStyle=orthogonalEdgeStyle;rounded=0;orthogonalLoop=1;jettySize=auto;html=1;" edge="1" parent="ML5cCSZE7fHTFNNnrcKf-213" source="ML5cCSZE7fHTFNNnrcKf-214">
          <mxGeometry relative="1" as="geometry">
            <mxPoint x="380" y="210" as="targetPoint" />
            <Array as="points">
              <mxPoint x="520" y="58" />
              <mxPoint x="520" y="210" />
            </Array>
          </mxGeometry>
        </mxCell>
        <mxCell id="ML5cCSZE7fHTFNNnrcKf-214" value="for every destination in destination list  returned by &#xa;setupDestinationDetails(TravelPackage) &#xa;from HandleDestiantionDetails.java &#xa;&#xa;Setup Activity details" style="text;align=left;verticalAlign=top;spacingLeft=4;spacingRight=4;overflow=hidden;rotatable=0;points=[[0,0.5],[1,0.5]];portConstraint=eastwest;rounded=0;shadow=0;html=0;" vertex="1" parent="ML5cCSZE7fHTFNNnrcKf-213">
          <mxGeometry y="26" width="360" height="64" as="geometry" />
        </mxCell>
        <mxCell id="ML5cCSZE7fHTFNNnrcKf-215" value="HandleActivityDetails.java" style="swimlane;fontStyle=2;align=center;verticalAlign=top;childLayout=stackLayout;horizontal=1;startSize=26;horizontalStack=0;resizeParent=1;resizeLast=0;collapsible=1;marginBottom=0;rounded=0;shadow=0;strokeWidth=1;" vertex="1" parent="WIyWlLk6GJQsqaUBKTNV-1">
          <mxGeometry x="90" y="840" width="360" height="90" as="geometry">
            <mxRectangle x="230" y="140" width="160" height="26" as="alternateBounds" />
          </mxGeometry>
        </mxCell>
        <mxCell id="ML5cCSZE7fHTFNNnrcKf-216" value="method(void) : setupActivityDetails(int, Destination, TravelPackage" style="text;align=left;verticalAlign=top;spacingLeft=4;spacingRight=4;overflow=hidden;rotatable=0;points=[[0,0.5],[1,0.5]];portConstraint=eastwest;rounded=0;shadow=0;html=0;" vertex="1" parent="ML5cCSZE7fHTFNNnrcKf-215">
          <mxGeometry y="26" width="360" height="64" as="geometry" />
        </mxCell>
        <mxCell id="ML5cCSZE7fHTFNNnrcKf-217" value="HandleActivityDetails.java" style="swimlane;fontStyle=2;align=center;verticalAlign=top;childLayout=stackLayout;horizontal=1;startSize=26;horizontalStack=0;resizeParent=1;resizeLast=0;collapsible=1;marginBottom=0;rounded=0;shadow=0;strokeWidth=1;" vertex="1" parent="WIyWlLk6GJQsqaUBKTNV-1">
          <mxGeometry x="100" y="1030" width="360" height="324" as="geometry">
            <mxRectangle x="230" y="140" width="160" height="26" as="alternateBounds" />
          </mxGeometry>
        </mxCell>
        <mxCell id="ML5cCSZE7fHTFNNnrcKf-218" value="activity.setDestinationId(destination.getDestinationId)" style="text;align=left;verticalAlign=top;spacingLeft=4;spacingRight=4;overflow=hidden;rotatable=0;points=[[0,0.5],[1,0.5]];portConstraint=eastwest;rounded=0;shadow=0;html=0;" vertex="1" parent="ML5cCSZE7fHTFNNnrcKf-217">
          <mxGeometry y="26" width="360" height="34" as="geometry" />
        </mxCell>
        <mxCell id="ML5cCSZE7fHTFNNnrcKf-220" value="activity.setActivityId(int)" style="text;align=left;verticalAlign=top;spacingLeft=4;spacingRight=4;overflow=hidden;rotatable=0;points=[[0,0.5],[1,0.5]];portConstraint=eastwest;rounded=0;shadow=0;html=0;" vertex="1" parent="ML5cCSZE7fHTFNNnrcKf-217">
          <mxGeometry y="60" width="360" height="34" as="geometry" />
        </mxCell>
        <mxCell id="ML5cCSZE7fHTFNNnrcKf-221" value="activity.setActivityName(String)" style="text;align=left;verticalAlign=top;spacingLeft=4;spacingRight=4;overflow=hidden;rotatable=0;points=[[0,0.5],[1,0.5]];portConstraint=eastwest;rounded=0;shadow=0;html=0;" vertex="1" parent="ML5cCSZE7fHTFNNnrcKf-217">
          <mxGeometry y="94" width="360" height="34" as="geometry" />
        </mxCell>
        <mxCell id="ML5cCSZE7fHTFNNnrcKf-222" value="activity.setActivityDescription(String)" style="text;align=left;verticalAlign=top;spacingLeft=4;spacingRight=4;overflow=hidden;rotatable=0;points=[[0,0.5],[1,0.5]];portConstraint=eastwest;rounded=0;shadow=0;html=0;" vertex="1" parent="ML5cCSZE7fHTFNNnrcKf-217">
          <mxGeometry y="128" width="360" height="34" as="geometry" />
        </mxCell>
        <mxCell id="ML5cCSZE7fHTFNNnrcKf-223" value="activity.setActivityCost(int)" style="text;align=left;verticalAlign=top;spacingLeft=4;spacingRight=4;overflow=hidden;rotatable=0;points=[[0,0.5],[1,0.5]];portConstraint=eastwest;rounded=0;shadow=0;html=0;" vertex="1" parent="ML5cCSZE7fHTFNNnrcKf-217">
          <mxGeometry y="162" width="360" height="34" as="geometry" />
        </mxCell>
        <mxCell id="ML5cCSZE7fHTFNNnrcKf-224" value="activity.setActivityCapacity(int)" style="text;align=left;verticalAlign=top;spacingLeft=4;spacingRight=4;overflow=hidden;rotatable=0;points=[[0,0.5],[1,0.5]];portConstraint=eastwest;rounded=0;shadow=0;html=0;" vertex="1" parent="ML5cCSZE7fHTFNNnrcKf-217">
          <mxGeometry y="196" width="360" height="34" as="geometry" />
        </mxCell>
        <mxCell id="ML5cCSZE7fHTFNNnrcKf-225" style="edgeStyle=orthogonalEdgeStyle;rounded=0;orthogonalLoop=1;jettySize=auto;html=1;entryX=1;entryY=0.176;entryDx=0;entryDy=0;entryPerimeter=0;" edge="1" parent="WIyWlLk6GJQsqaUBKTNV-1" source="ML5cCSZE7fHTFNNnrcKf-216" target="ML5cCSZE7fHTFNNnrcKf-218">
          <mxGeometry relative="1" as="geometry">
            <mxPoint x="510" y="1070" as="targetPoint" />
            <Array as="points">
              <mxPoint x="580" y="898" />
              <mxPoint x="580" y="1070" />
              <mxPoint x="460" y="1070" />
            </Array>
          </mxGeometry>
        </mxCell>
        <mxCell id="ML5cCSZE7fHTFNNnrcKf-226" value="to a new activity object add details&lt;div&gt;After setting up details&amp;nbsp;&lt;/div&gt;&lt;div&gt;add same activity to destination object&lt;/div&gt;" style="edgeLabel;resizable=0;html=1;align=left;verticalAlign=bottom;" connectable="0" vertex="1" parent="WIyWlLk6GJQsqaUBKTNV-1">
          <mxGeometry x="520" y="990" as="geometry" />
        </mxCell>
        <mxCell id="ML5cCSZE7fHTFNNnrcKf-228" value="Pass destination, travel Package object" style="edgeLabel;resizable=0;html=1;align=left;verticalAlign=bottom;" connectable="0" vertex="1" parent="WIyWlLk6GJQsqaUBKTNV-1">
          <mxGeometry x="510" y="770" as="geometry" />
        </mxCell>
        <mxCell id="ML5cCSZE7fHTFNNnrcKf-230" value="Main.java" style="swimlane;fontStyle=2;align=center;verticalAlign=top;childLayout=stackLayout;horizontal=1;startSize=26;horizontalStack=0;resizeParent=1;resizeLast=0;collapsible=1;marginBottom=0;rounded=0;shadow=0;strokeWidth=1;" vertex="1" parent="WIyWlLk6GJQsqaUBKTNV-1">
          <mxGeometry x="790" y="640" width="360" height="120" as="geometry">
            <mxRectangle x="230" y="140" width="160" height="26" as="alternateBounds" />
          </mxGeometry>
        </mxCell>
        <mxCell id="ML5cCSZE7fHTFNNnrcKf-232" value="for every destination in destination list  returned by &#xa;setupDestinationDetails(TravelPackage) &#xa;from HandleDestiantionDetails.java &#xa;add destination in travelPackage.destinationLIst" style="text;align=left;verticalAlign=top;spacingLeft=4;spacingRight=4;overflow=hidden;rotatable=0;points=[[0,0.5],[1,0.5]];portConstraint=eastwest;rounded=0;shadow=0;html=0;" vertex="1" parent="ML5cCSZE7fHTFNNnrcKf-230">
          <mxGeometry y="26" width="360" height="64" as="geometry" />
        </mxCell>
        <mxCell id="ML5cCSZE7fHTFNNnrcKf-233" value="Main.java" style="swimlane;fontStyle=2;align=center;verticalAlign=top;childLayout=stackLayout;horizontal=1;startSize=26;horizontalStack=0;resizeParent=1;resizeLast=0;collapsible=1;marginBottom=0;rounded=0;shadow=0;strokeWidth=1;" vertex="1" parent="WIyWlLk6GJQsqaUBKTNV-1">
          <mxGeometry x="1190" y="640" width="360" height="70" as="geometry">
            <mxRectangle x="230" y="140" width="160" height="26" as="alternateBounds" />
          </mxGeometry>
        </mxCell>
        <mxCell id="ML5cCSZE7fHTFNNnrcKf-245" style="edgeStyle=orthogonalEdgeStyle;rounded=0;orthogonalLoop=1;jettySize=auto;html=1;" edge="1" parent="ML5cCSZE7fHTFNNnrcKf-233" source="ML5cCSZE7fHTFNNnrcKf-234">
          <mxGeometry relative="1" as="geometry">
            <mxPoint x="370" y="170" as="targetPoint" />
            <Array as="points">
              <mxPoint x="440" y="48" />
              <mxPoint x="440" y="170" />
            </Array>
          </mxGeometry>
        </mxCell>
        <mxCell id="ML5cCSZE7fHTFNNnrcKf-234" value="Enter Passenger Details" style="text;align=left;verticalAlign=top;spacingLeft=4;spacingRight=4;overflow=hidden;rotatable=0;points=[[0,0.5],[1,0.5]];portConstraint=eastwest;rounded=0;shadow=0;html=0;" vertex="1" parent="ML5cCSZE7fHTFNNnrcKf-233">
          <mxGeometry y="26" width="360" height="44" as="geometry" />
        </mxCell>
        <mxCell id="ML5cCSZE7fHTFNNnrcKf-235" value="&amp;nbsp;Main.java&amp;nbsp;&lt;br&gt;Instruction 0" style="html=1;whiteSpace=wrap;" vertex="1" parent="WIyWlLk6GJQsqaUBKTNV-1">
          <mxGeometry x="-990" y="570" width="250" height="50" as="geometry" />
        </mxCell>
        <mxCell id="ML5cCSZE7fHTFNNnrcKf-237" value="&amp;nbsp;Main.java&amp;nbsp;&lt;br&gt;Instruction 1" style="html=1;whiteSpace=wrap;" vertex="1" parent="WIyWlLk6GJQsqaUBKTNV-1">
          <mxGeometry x="-538" y="560" width="338" height="50" as="geometry" />
        </mxCell>
        <mxCell id="ML5cCSZE7fHTFNNnrcKf-238" value="&amp;nbsp;Main.java&amp;nbsp;&lt;br&gt;Instruction 2" style="html=1;whiteSpace=wrap;" vertex="1" parent="WIyWlLk6GJQsqaUBKTNV-1">
          <mxGeometry x="80" y="560" width="338" height="50" as="geometry" />
        </mxCell>
        <mxCell id="ML5cCSZE7fHTFNNnrcKf-239" value="&amp;nbsp;Main.java&amp;nbsp;&lt;br&gt;Instruction 3" style="html=1;whiteSpace=wrap;" vertex="1" parent="WIyWlLk6GJQsqaUBKTNV-1">
          <mxGeometry x="801" y="560" width="338" height="50" as="geometry" />
        </mxCell>
        <mxCell id="ML5cCSZE7fHTFNNnrcKf-240" value="&amp;nbsp;Main.java&amp;nbsp;&lt;br&gt;Instruction 4" style="html=1;whiteSpace=wrap;" vertex="1" parent="WIyWlLk6GJQsqaUBKTNV-1">
          <mxGeometry x="1201" y="560" width="338" height="50" as="geometry" />
        </mxCell>
        <mxCell id="ML5cCSZE7fHTFNNnrcKf-241" value="HandlePassengerDetails.java" style="swimlane;fontStyle=2;align=center;verticalAlign=top;childLayout=stackLayout;horizontal=1;startSize=26;horizontalStack=0;resizeParent=1;resizeLast=0;collapsible=1;marginBottom=0;rounded=0;shadow=0;strokeWidth=1;" vertex="1" parent="WIyWlLk6GJQsqaUBKTNV-1">
          <mxGeometry x="1190" y="780" width="360" height="70" as="geometry">
            <mxRectangle x="230" y="140" width="160" height="26" as="alternateBounds" />
          </mxGeometry>
        </mxCell>
        <mxCell id="ML5cCSZE7fHTFNNnrcKf-246" style="edgeStyle=orthogonalEdgeStyle;rounded=0;orthogonalLoop=1;jettySize=auto;html=1;exitX=1;exitY=0.5;exitDx=0;exitDy=0;" edge="1" parent="ML5cCSZE7fHTFNNnrcKf-241" source="ML5cCSZE7fHTFNNnrcKf-242">
          <mxGeometry relative="1" as="geometry">
            <mxPoint x="390" y="200" as="targetPoint" />
            <Array as="points">
              <mxPoint x="430" y="48" />
              <mxPoint x="430" y="200" />
            </Array>
          </mxGeometry>
        </mxCell>
        <mxCell id="ML5cCSZE7fHTFNNnrcKf-242" value="method(vodi) : enterPassengerDetails(Scanner, TravelPackage)" style="text;align=left;verticalAlign=top;spacingLeft=4;spacingRight=4;overflow=hidden;rotatable=0;points=[[0,0.5],[1,0.5]];portConstraint=eastwest;rounded=0;shadow=0;html=0;" vertex="1" parent="ML5cCSZE7fHTFNNnrcKf-241">
          <mxGeometry y="26" width="360" height="44" as="geometry" />
        </mxCell>
        <mxCell id="ML5cCSZE7fHTFNNnrcKf-243" value="HandlePassengerDetails.java" style="swimlane;fontStyle=2;align=center;verticalAlign=top;childLayout=stackLayout;horizontal=1;startSize=26;horizontalStack=0;resizeParent=1;resizeLast=0;collapsible=1;marginBottom=0;rounded=0;shadow=0;strokeWidth=1;" vertex="1" parent="WIyWlLk6GJQsqaUBKTNV-1">
          <mxGeometry x="1201" y="930" width="360" height="70" as="geometry">
            <mxRectangle x="230" y="140" width="160" height="26" as="alternateBounds" />
          </mxGeometry>
        </mxCell>
        <mxCell id="ML5cCSZE7fHTFNNnrcKf-249" style="edgeStyle=orthogonalEdgeStyle;rounded=0;orthogonalLoop=1;jettySize=auto;html=1;" edge="1" parent="ML5cCSZE7fHTFNNnrcKf-243" source="ML5cCSZE7fHTFNNnrcKf-244">
          <mxGeometry relative="1" as="geometry">
            <mxPoint x="-11" y="230" as="targetPoint" />
            <Array as="points">
              <mxPoint x="-70" y="48" />
            </Array>
          </mxGeometry>
        </mxCell>
        <mxCell id="ML5cCSZE7fHTFNNnrcKf-244" value="method(vodi) : enterPassengerDetails(Scanner, TravelPackage)" style="text;align=left;verticalAlign=top;spacingLeft=4;spacingRight=4;overflow=hidden;rotatable=0;points=[[0,0.5],[1,0.5]];portConstraint=eastwest;rounded=0;shadow=0;html=0;" vertex="1" parent="ML5cCSZE7fHTFNNnrcKf-243">
          <mxGeometry y="26" width="360" height="44" as="geometry" />
        </mxCell>
        <mxCell id="ML5cCSZE7fHTFNNnrcKf-255" style="edgeStyle=orthogonalEdgeStyle;rounded=0;orthogonalLoop=1;jettySize=auto;html=1;exitX=0;exitY=0.75;exitDx=0;exitDy=0;" edge="1" parent="WIyWlLk6GJQsqaUBKTNV-1" source="ML5cCSZE7fHTFNNnrcKf-247">
          <mxGeometry relative="1" as="geometry">
            <mxPoint x="900" y="1270" as="targetPoint" />
            <Array as="points">
              <mxPoint x="900" y="1203" />
            </Array>
          </mxGeometry>
        </mxCell>
        <mxCell id="ML5cCSZE7fHTFNNnrcKf-247" value="HandlePassengerDetails.java" style="swimlane;fontStyle=2;align=center;verticalAlign=top;childLayout=stackLayout;horizontal=1;startSize=26;horizontalStack=0;resizeParent=1;resizeLast=0;collapsible=1;marginBottom=0;rounded=0;shadow=0;strokeWidth=1;" vertex="1" parent="WIyWlLk6GJQsqaUBKTNV-1">
          <mxGeometry x="1201" y="1090" width="360" height="150" as="geometry">
            <mxRectangle x="230" y="140" width="160" height="26" as="alternateBounds" />
          </mxGeometry>
        </mxCell>
        <mxCell id="ML5cCSZE7fHTFNNnrcKf-248" value="While user wants to input passenger details  or travel package &#xa;object passenger capacity is not reached  add to&#xa; passenger list in travelPackage object&#xa;" style="text;align=left;verticalAlign=top;spacingLeft=4;spacingRight=4;overflow=hidden;rotatable=0;points=[[0,0.5],[1,0.5]];portConstraint=eastwest;rounded=0;shadow=0;html=0;" vertex="1" parent="ML5cCSZE7fHTFNNnrcKf-247">
          <mxGeometry y="26" width="360" height="44" as="geometry" />
        </mxCell>
        <mxCell id="ML5cCSZE7fHTFNNnrcKf-250" value="HandlePassengerDetails.java" style="swimlane;fontStyle=2;align=center;verticalAlign=top;childLayout=stackLayout;horizontal=1;startSize=26;horizontalStack=0;resizeParent=1;resizeLast=0;collapsible=1;marginBottom=0;rounded=0;shadow=0;strokeWidth=1;" vertex="1" parent="WIyWlLk6GJQsqaUBKTNV-1">
          <mxGeometry x="1211" y="1290" width="360" height="200" as="geometry">
            <mxRectangle x="230" y="140" width="160" height="26" as="alternateBounds" />
          </mxGeometry>
        </mxCell>
        <mxCell id="ML5cCSZE7fHTFNNnrcKf-251" value="Get passengerId and set it  to passenger id" style="text;align=left;verticalAlign=top;spacingLeft=4;spacingRight=4;overflow=hidden;rotatable=0;points=[[0,0.5],[1,0.5]];portConstraint=eastwest;rounded=0;shadow=0;html=0;" vertex="1" parent="ML5cCSZE7fHTFNNnrcKf-250">
          <mxGeometry y="26" width="360" height="24" as="geometry" />
        </mxCell>
        <mxCell id="ML5cCSZE7fHTFNNnrcKf-252" value="Get passengerName and set it  to passenger name" style="text;align=left;verticalAlign=top;spacingLeft=4;spacingRight=4;overflow=hidden;rotatable=0;points=[[0,0.5],[1,0.5]];portConstraint=eastwest;rounded=0;shadow=0;html=0;" vertex="1" parent="ML5cCSZE7fHTFNNnrcKf-250">
          <mxGeometry y="50" width="360" height="24" as="geometry" />
        </mxCell>
        <mxCell id="ML5cCSZE7fHTFNNnrcKf-253" value="Get passengerType and set it  to passenger  type" style="text;align=left;verticalAlign=top;spacingLeft=4;spacingRight=4;overflow=hidden;rotatable=0;points=[[0,0.5],[1,0.5]];portConstraint=eastwest;rounded=0;shadow=0;html=0;" vertex="1" parent="ML5cCSZE7fHTFNNnrcKf-250">
          <mxGeometry y="74" width="360" height="24" as="geometry" />
        </mxCell>
        <mxCell id="ML5cCSZE7fHTFNNnrcKf-254" value="Get balance and set it to passenger balance" style="text;align=left;verticalAlign=top;spacingLeft=4;spacingRight=4;overflow=hidden;rotatable=0;points=[[0,0.5],[1,0.5]];portConstraint=eastwest;rounded=0;shadow=0;html=0;" vertex="1" parent="ML5cCSZE7fHTFNNnrcKf-250">
          <mxGeometry y="98" width="360" height="24" as="geometry" />
        </mxCell>
        <mxCell id="ML5cCSZE7fHTFNNnrcKf-269" value="adds this passenger in travelPackage.passengerList" style="text;align=left;verticalAlign=top;spacingLeft=4;spacingRight=4;overflow=hidden;rotatable=0;points=[[0,0.5],[1,0.5]];portConstraint=eastwest;rounded=0;shadow=0;html=0;" vertex="1" parent="ML5cCSZE7fHTFNNnrcKf-250">
          <mxGeometry y="122" width="360" height="24" as="geometry" />
        </mxCell>
        <mxCell id="ML5cCSZE7fHTFNNnrcKf-256" value="Want to add more passengers&amp;nbsp;" style="rhombus;whiteSpace=wrap;html=1;fontColor=#000000;fillColor=#ffffc0;strokeColor=#ff0000;" vertex="1" parent="WIyWlLk6GJQsqaUBKTNV-1">
          <mxGeometry x="800" y="1280" width="230" height="110" as="geometry" />
        </mxCell>
        <mxCell id="ML5cCSZE7fHTFNNnrcKf-257" value="no" style="edgeStyle=orthogonalEdgeStyle;html=1;align=left;verticalAlign=bottom;endArrow=open;endSize=8;strokeColor=#ff0000;rounded=0;" edge="1" parent="WIyWlLk6GJQsqaUBKTNV-1">
          <mxGeometry x="0.9051" y="15" relative="1" as="geometry">
            <mxPoint x="915" y="1590" as="targetPoint" />
            <mxPoint x="914.5" y="1400" as="sourcePoint" />
            <Array as="points">
              <mxPoint x="914.5" y="1390" />
              <mxPoint x="914.5" y="1390" />
            </Array>
            <mxPoint as="offset" />
          </mxGeometry>
        </mxCell>
        <mxCell id="ML5cCSZE7fHTFNNnrcKf-258" value="yes" style="edgeStyle=orthogonalEdgeStyle;html=1;align=left;verticalAlign=top;endArrow=open;endSize=8;strokeColor=#ff0000;rounded=0;" edge="1" source="ML5cCSZE7fHTFNNnrcKf-256" parent="WIyWlLk6GJQsqaUBKTNV-1">
          <mxGeometry x="-1" relative="1" as="geometry">
            <mxPoint x="1190" y="1360" as="targetPoint" />
            <Array as="points">
              <mxPoint x="1150" y="1335" />
              <mxPoint x="1150" y="1360" />
            </Array>
          </mxGeometry>
        </mxCell>
        <mxCell id="ML5cCSZE7fHTFNNnrcKf-259" value="IsPassengerCapacityReached" style="rhombus;whiteSpace=wrap;html=1;fontColor=#000000;fillColor=#ffffc0;strokeColor=#ff0000;" vertex="1" parent="WIyWlLk6GJQsqaUBKTNV-1">
          <mxGeometry x="540" y="1280" width="230" height="110" as="geometry" />
        </mxCell>
        <mxCell id="ML5cCSZE7fHTFNNnrcKf-260" value="no" style="edgeStyle=orthogonalEdgeStyle;html=1;align=left;verticalAlign=bottom;endArrow=open;endSize=8;strokeColor=#ff0000;rounded=0;" edge="1" parent="WIyWlLk6GJQsqaUBKTNV-1">
          <mxGeometry x="0.6564" y="-30" relative="1" as="geometry">
            <mxPoint x="1180" y="1370" as="targetPoint" />
            <mxPoint x="655" y="1400" as="sourcePoint" />
            <Array as="points">
              <mxPoint x="655" y="1530" />
              <mxPoint x="1100" y="1530" />
              <mxPoint x="1100" y="1370" />
            </Array>
            <mxPoint as="offset" />
          </mxGeometry>
        </mxCell>
        <mxCell id="ML5cCSZE7fHTFNNnrcKf-261" value="yes" style="edgeStyle=orthogonalEdgeStyle;html=1;align=left;verticalAlign=top;endArrow=open;endSize=8;strokeColor=#ff0000;rounded=0;" edge="1" parent="WIyWlLk6GJQsqaUBKTNV-1" source="ML5cCSZE7fHTFNNnrcKf-259">
          <mxGeometry x="0.4586" y="-10" relative="1" as="geometry">
            <mxPoint x="890" y="1590" as="targetPoint" />
            <Array as="points">
              <mxPoint x="520" y="1335" />
              <mxPoint x="520" y="1570" />
            </Array>
            <mxPoint as="offset" />
          </mxGeometry>
        </mxCell>
        <mxCell id="ML5cCSZE7fHTFNNnrcKf-262" style="edgeStyle=orthogonalEdgeStyle;rounded=0;orthogonalLoop=1;jettySize=auto;html=1;" edge="1" parent="WIyWlLk6GJQsqaUBKTNV-1">
          <mxGeometry relative="1" as="geometry">
            <mxPoint x="650" y="1277" as="targetPoint" />
            <mxPoint x="1100" y="1200" as="sourcePoint" />
            <Array as="points">
              <mxPoint x="1012" y="1200" />
              <mxPoint x="650" y="1200" />
            </Array>
          </mxGeometry>
        </mxCell>
        <mxCell id="ML5cCSZE7fHTFNNnrcKf-263" value="HandlePassengerDetails.java" style="swimlane;fontStyle=2;align=center;verticalAlign=top;childLayout=stackLayout;horizontal=1;startSize=26;horizontalStack=0;resizeParent=1;resizeLast=0;collapsible=1;marginBottom=0;rounded=0;shadow=0;strokeWidth=1;" vertex="1" parent="WIyWlLk6GJQsqaUBKTNV-1">
          <mxGeometry x="760" y="1604" width="360" height="150" as="geometry">
            <mxRectangle x="230" y="140" width="160" height="26" as="alternateBounds" />
          </mxGeometry>
        </mxCell>
        <mxCell id="ML5cCSZE7fHTFNNnrcKf-267" value="No more passenger can be added" style="text;align=left;verticalAlign=top;spacingLeft=4;spacingRight=4;overflow=hidden;rotatable=0;points=[[0,0.5],[1,0.5]];portConstraint=eastwest;rounded=0;shadow=0;html=0;" vertex="1" parent="ML5cCSZE7fHTFNNnrcKf-263">
          <mxGeometry y="26" width="360" height="24" as="geometry" />
        </mxCell>
        <mxCell id="ML5cCSZE7fHTFNNnrcKf-268" value="Exits infinite loop" style="text;align=left;verticalAlign=top;spacingLeft=4;spacingRight=4;overflow=hidden;rotatable=0;points=[[0,0.5],[1,0.5]];portConstraint=eastwest;rounded=0;shadow=0;html=0;" vertex="1" parent="ML5cCSZE7fHTFNNnrcKf-263">
          <mxGeometry y="50" width="360" height="24" as="geometry" />
        </mxCell>
        <mxCell id="ML5cCSZE7fHTFNNnrcKf-271" value="&amp;nbsp;Main.java&amp;nbsp;&lt;br&gt;Instruction 5" style="html=1;whiteSpace=wrap;" vertex="1" parent="WIyWlLk6GJQsqaUBKTNV-1">
          <mxGeometry x="-1570" y="1830" width="360" height="50" as="geometry" />
        </mxCell>
        <mxCell id="ML5cCSZE7fHTFNNnrcKf-272" value="Main.java" style="swimlane;fontStyle=2;align=center;verticalAlign=top;childLayout=stackLayout;horizontal=1;startSize=26;horizontalStack=0;resizeParent=1;resizeLast=0;collapsible=1;marginBottom=0;rounded=0;shadow=0;strokeWidth=1;" vertex="1" parent="WIyWlLk6GJQsqaUBKTNV-1">
          <mxGeometry x="-1570" y="1924" width="360" height="70" as="geometry">
            <mxRectangle x="230" y="140" width="160" height="26" as="alternateBounds" />
          </mxGeometry>
        </mxCell>
        <mxCell id="ML5cCSZE7fHTFNNnrcKf-275" value="If travel package passenger list empty  no further execution" style="text;align=left;verticalAlign=top;spacingLeft=4;spacingRight=4;overflow=hidden;rotatable=0;points=[[0,0.5],[1,0.5]];portConstraint=eastwest;rounded=0;shadow=0;html=0;" vertex="1" parent="ML5cCSZE7fHTFNNnrcKf-272">
          <mxGeometry y="26" width="360" height="44" as="geometry" />
        </mxCell>
        <mxCell id="ML5cCSZE7fHTFNNnrcKf-276" value="&amp;nbsp;Main.java&amp;nbsp;&lt;br&gt;Instruction 6" style="html=1;whiteSpace=wrap;" vertex="1" parent="WIyWlLk6GJQsqaUBKTNV-1">
          <mxGeometry x="-1155" y="1830" width="360" height="50" as="geometry" />
        </mxCell>
        <mxCell id="ML5cCSZE7fHTFNNnrcKf-278" value="Main.java" style="swimlane;fontStyle=2;align=center;verticalAlign=top;childLayout=stackLayout;horizontal=1;startSize=26;horizontalStack=0;resizeParent=1;resizeLast=0;collapsible=1;marginBottom=0;rounded=0;shadow=0;strokeWidth=1;" vertex="1" parent="WIyWlLk6GJQsqaUBKTNV-1">
          <mxGeometry x="-1155" y="1924" width="360" height="70" as="geometry">
            <mxRectangle x="230" y="140" width="160" height="26" as="alternateBounds" />
          </mxGeometry>
        </mxCell>
        <mxCell id="ML5cCSZE7fHTFNNnrcKf-279" value="Prints travelpkg passenger details" style="text;align=left;verticalAlign=top;spacingLeft=4;spacingRight=4;overflow=hidden;rotatable=0;points=[[0,0.5],[1,0.5]];portConstraint=eastwest;rounded=0;shadow=0;html=0;" vertex="1" parent="ML5cCSZE7fHTFNNnrcKf-278">
          <mxGeometry y="26" width="360" height="44" as="geometry" />
        </mxCell>
        <mxCell id="ML5cCSZE7fHTFNNnrcKf-280" value="&amp;nbsp;Main.java&amp;nbsp;&lt;br&gt;Instruction 7" style="html=1;whiteSpace=wrap;" vertex="1" parent="WIyWlLk6GJQsqaUBKTNV-1">
          <mxGeometry x="-740" y="1830" width="360" height="50" as="geometry" />
        </mxCell>
        <mxCell id="ML5cCSZE7fHTFNNnrcKf-281" value="Main.java" style="swimlane;fontStyle=2;align=center;verticalAlign=top;childLayout=stackLayout;horizontal=1;startSize=26;horizontalStack=0;resizeParent=1;resizeLast=0;collapsible=1;marginBottom=0;rounded=0;shadow=0;strokeWidth=1;" vertex="1" parent="WIyWlLk6GJQsqaUBKTNV-1">
          <mxGeometry x="-750" y="1924" width="360" height="70" as="geometry">
            <mxRectangle x="230" y="140" width="160" height="26" as="alternateBounds" />
          </mxGeometry>
        </mxCell>
        <mxCell id="ML5cCSZE7fHTFNNnrcKf-282" value="Prints passenger ids" style="text;align=left;verticalAlign=top;spacingLeft=4;spacingRight=4;overflow=hidden;rotatable=0;points=[[0,0.5],[1,0.5]];portConstraint=eastwest;rounded=0;shadow=0;html=0;" vertex="1" parent="ML5cCSZE7fHTFNNnrcKf-281">
          <mxGeometry y="26" width="360" height="44" as="geometry" />
        </mxCell>
        <mxCell id="ML5cCSZE7fHTFNNnrcKf-283" value="&amp;nbsp;Main.java&amp;nbsp;&lt;br&gt;Instruction 8" style="html=1;whiteSpace=wrap;" vertex="1" parent="WIyWlLk6GJQsqaUBKTNV-1">
          <mxGeometry x="-350" y="1830" width="360" height="50" as="geometry" />
        </mxCell>
        <mxCell id="ML5cCSZE7fHTFNNnrcKf-284" value="Main.java" style="swimlane;fontStyle=2;align=center;verticalAlign=top;childLayout=stackLayout;horizontal=1;startSize=26;horizontalStack=0;resizeParent=1;resizeLast=0;collapsible=1;marginBottom=0;rounded=0;shadow=0;strokeWidth=1;" vertex="1" parent="WIyWlLk6GJQsqaUBKTNV-1">
          <mxGeometry x="-350" y="1924" width="360" height="70" as="geometry">
            <mxRectangle x="230" y="140" width="160" height="26" as="alternateBounds" />
          </mxGeometry>
        </mxCell>
        <mxCell id="ML5cCSZE7fHTFNNnrcKf-285" value="Subsrice passenger" style="text;align=left;verticalAlign=top;spacingLeft=4;spacingRight=4;overflow=hidden;rotatable=0;points=[[0,0.5],[1,0.5]];portConstraint=eastwest;rounded=0;shadow=0;html=0;" vertex="1" parent="ML5cCSZE7fHTFNNnrcKf-284">
          <mxGeometry y="26" width="360" height="44" as="geometry" />
        </mxCell>
        <mxCell id="ML5cCSZE7fHTFNNnrcKf-288" value="HandlePassengerDetails.java" style="swimlane;fontStyle=2;align=center;verticalAlign=top;childLayout=stackLayout;horizontal=1;startSize=26;horizontalStack=0;resizeParent=1;resizeLast=0;collapsible=1;marginBottom=0;rounded=0;shadow=0;strokeWidth=1;" vertex="1" parent="WIyWlLk6GJQsqaUBKTNV-1">
          <mxGeometry x="-340" y="2040" width="360" height="70" as="geometry">
            <mxRectangle x="230" y="140" width="160" height="26" as="alternateBounds" />
          </mxGeometry>
        </mxCell>
        <mxCell id="ML5cCSZE7fHTFNNnrcKf-289" value="method(void) : subscribePassenger(Scanner, TravelPackage)" style="text;align=left;verticalAlign=top;spacingLeft=4;spacingRight=4;overflow=hidden;rotatable=0;points=[[0,0.5],[1,0.5]];portConstraint=eastwest;rounded=0;shadow=0;html=0;" vertex="1" parent="ML5cCSZE7fHTFNNnrcKf-288">
          <mxGeometry y="26" width="360" height="44" as="geometry" />
        </mxCell>
        <mxCell id="ML5cCSZE7fHTFNNnrcKf-290" style="edgeStyle=orthogonalEdgeStyle;rounded=0;orthogonalLoop=1;jettySize=auto;html=1;entryX=0.994;entryY=0.341;entryDx=0;entryDy=0;entryPerimeter=0;" edge="1" parent="WIyWlLk6GJQsqaUBKTNV-1" source="ML5cCSZE7fHTFNNnrcKf-285" target="ML5cCSZE7fHTFNNnrcKf-289">
          <mxGeometry relative="1" as="geometry">
            <mxPoint x="90" y="2090" as="targetPoint" />
            <Array as="points">
              <mxPoint x="91" y="1972" />
              <mxPoint x="91" y="2081" />
            </Array>
          </mxGeometry>
        </mxCell>
        <mxCell id="ML5cCSZE7fHTFNNnrcKf-291" value="HandlePassengerDetails.java" style="swimlane;fontStyle=2;align=center;verticalAlign=top;childLayout=stackLayout;horizontal=1;startSize=26;horizontalStack=0;resizeParent=1;resizeLast=0;collapsible=1;marginBottom=0;rounded=0;shadow=0;strokeWidth=1;" vertex="1" parent="WIyWlLk6GJQsqaUBKTNV-1">
          <mxGeometry x="-340" y="2180" width="360" height="240" as="geometry">
            <mxRectangle x="230" y="140" width="160" height="26" as="alternateBounds" />
          </mxGeometry>
        </mxCell>
        <mxCell id="ML5cCSZE7fHTFNNnrcKf-301" value="Print passenger details" style="text;align=left;verticalAlign=top;spacingLeft=4;spacingRight=4;overflow=hidden;rotatable=0;points=[[0,0.5],[1,0.5]];portConstraint=eastwest;rounded=0;shadow=0;html=0;" vertex="1" parent="ML5cCSZE7fHTFNNnrcKf-291">
          <mxGeometry y="26" width="360" height="34" as="geometry" />
        </mxCell>
        <mxCell id="ML5cCSZE7fHTFNNnrcKf-302" value="ask user to enter passenger id " style="text;align=left;verticalAlign=top;spacingLeft=4;spacingRight=4;overflow=hidden;rotatable=0;points=[[0,0.5],[1,0.5]];portConstraint=eastwest;rounded=0;shadow=0;html=0;" vertex="1" parent="ML5cCSZE7fHTFNNnrcKf-291">
          <mxGeometry y="60" width="360" height="34" as="geometry" />
        </mxCell>
        <mxCell id="ML5cCSZE7fHTFNNnrcKf-303" value="ask user to enter destination id" style="text;align=left;verticalAlign=top;spacingLeft=4;spacingRight=4;overflow=hidden;rotatable=0;points=[[0,0.5],[1,0.5]];portConstraint=eastwest;rounded=0;shadow=0;html=0;" vertex="1" parent="ML5cCSZE7fHTFNNnrcKf-291">
          <mxGeometry y="94" width="360" height="34" as="geometry" />
        </mxCell>
        <mxCell id="ML5cCSZE7fHTFNNnrcKf-304" value="ask user to enter activity id" style="text;align=left;verticalAlign=top;spacingLeft=4;spacingRight=4;overflow=hidden;rotatable=0;points=[[0,0.5],[1,0.5]];portConstraint=eastwest;rounded=0;shadow=0;html=0;" vertex="1" parent="ML5cCSZE7fHTFNNnrcKf-291">
          <mxGeometry y="128" width="360" height="34" as="geometry" />
        </mxCell>
        <mxCell id="ML5cCSZE7fHTFNNnrcKf-293" value="Travelpackage passenger&lt;div&gt;&amp;nbsp;capacity&lt;div&gt;&amp;nbsp;reachead&amp;nbsp;&lt;/div&gt;&lt;div&gt;subscription limit&lt;/div&gt;&lt;/div&gt;" style="rhombus;whiteSpace=wrap;html=1;fontColor=#000000;fillColor=#ffffc0;strokeColor=#ff0000;" vertex="1" parent="WIyWlLk6GJQsqaUBKTNV-1">
          <mxGeometry x="-710" y="2180" width="240" height="140" as="geometry" />
        </mxCell>
        <mxCell id="ML5cCSZE7fHTFNNnrcKf-294" value="Yes" style="edgeStyle=orthogonalEdgeStyle;html=1;align=left;verticalAlign=bottom;endArrow=open;endSize=8;strokeColor=#ff0000;rounded=0;" edge="1" parent="WIyWlLk6GJQsqaUBKTNV-1">
          <mxGeometry x="0.9051" y="15" relative="1" as="geometry">
            <mxPoint x="-590" y="2400" as="targetPoint" />
            <mxPoint x="-590.5" y="2320" as="sourcePoint" />
            <Array as="points">
              <mxPoint x="-590.5" y="2370" />
              <mxPoint x="-590.5" y="2370" />
            </Array>
            <mxPoint as="offset" />
          </mxGeometry>
        </mxCell>
        <mxCell id="ML5cCSZE7fHTFNNnrcKf-295" value="No" style="edgeStyle=orthogonalEdgeStyle;html=1;align=left;verticalAlign=top;endArrow=open;endSize=8;strokeColor=#ff0000;rounded=0;" edge="1" parent="WIyWlLk6GJQsqaUBKTNV-1" source="ML5cCSZE7fHTFNNnrcKf-293">
          <mxGeometry x="-0.2031" y="35" relative="1" as="geometry">
            <mxPoint x="-340" y="2225" as="targetPoint" />
            <Array as="points">
              <mxPoint x="-400" y="2225" />
              <mxPoint x="-400" y="2230" />
              <mxPoint x="-370" y="2230" />
            </Array>
            <mxPoint as="offset" />
          </mxGeometry>
        </mxCell>
        <mxCell id="ML5cCSZE7fHTFNNnrcKf-298" style="edgeStyle=orthogonalEdgeStyle;rounded=0;orthogonalLoop=1;jettySize=auto;html=1;entryX=0.5;entryY=0;entryDx=0;entryDy=0;" edge="1" parent="WIyWlLk6GJQsqaUBKTNV-1" source="ML5cCSZE7fHTFNNnrcKf-289" target="ML5cCSZE7fHTFNNnrcKf-293">
          <mxGeometry relative="1" as="geometry" />
        </mxCell>
        <mxCell id="ML5cCSZE7fHTFNNnrcKf-299" value="HandlePassengerDetails.java" style="swimlane;fontStyle=2;align=center;verticalAlign=top;childLayout=stackLayout;horizontal=1;startSize=26;horizontalStack=0;resizeParent=1;resizeLast=0;collapsible=1;marginBottom=0;rounded=0;shadow=0;strokeWidth=1;" vertex="1" parent="WIyWlLk6GJQsqaUBKTNV-1">
          <mxGeometry x="-690" y="2400" width="280" height="130" as="geometry">
            <mxRectangle x="230" y="140" width="160" height="26" as="alternateBounds" />
          </mxGeometry>
        </mxCell>
        <mxCell id="ML5cCSZE7fHTFNNnrcKf-300" value="Print passenger details and ask user to &#xa;exit inifinite loop&#xa;of subscribing passenger" style="text;align=left;verticalAlign=top;spacingLeft=4;spacingRight=4;overflow=hidden;rotatable=0;points=[[0,0.5],[1,0.5]];portConstraint=eastwest;rounded=0;shadow=0;html=0;" vertex="1" parent="ML5cCSZE7fHTFNNnrcKf-299">
          <mxGeometry y="26" width="280" height="104" as="geometry" />
        </mxCell>
        <mxCell id="ML5cCSZE7fHTFNNnrcKf-305" value="if user already&lt;div&gt;subscribed to activity id&lt;/div&gt;" style="rhombus;whiteSpace=wrap;html=1;fontColor=#000000;fillColor=#ffffc0;strokeColor=#ff0000;" vertex="1" parent="WIyWlLk6GJQsqaUBKTNV-1">
          <mxGeometry x="90" y="2270" width="240" height="140" as="geometry" />
        </mxCell>
        <mxCell id="ML5cCSZE7fHTFNNnrcKf-306" value="Yes" style="edgeStyle=orthogonalEdgeStyle;html=1;align=left;verticalAlign=bottom;endArrow=open;endSize=8;strokeColor=#ff0000;rounded=0;exitX=1;exitY=0.5;exitDx=0;exitDy=0;" edge="1" parent="WIyWlLk6GJQsqaUBKTNV-1" source="ML5cCSZE7fHTFNNnrcKf-305">
          <mxGeometry x="0.9051" y="15" relative="1" as="geometry">
            <mxPoint x="400.5" y="2450" as="targetPoint" />
            <mxPoint x="401" y="2340" as="sourcePoint" />
            <Array as="points">
              <mxPoint x="400" y="2340" />
            </Array>
            <mxPoint as="offset" />
          </mxGeometry>
        </mxCell>
        <mxCell id="ML5cCSZE7fHTFNNnrcKf-307" value="No" style="edgeStyle=orthogonalEdgeStyle;html=1;align=left;verticalAlign=top;endArrow=open;endSize=8;strokeColor=#ff0000;rounded=0;" edge="1" parent="WIyWlLk6GJQsqaUBKTNV-1" source="ML5cCSZE7fHTFNNnrcKf-305">
          <mxGeometry x="0.3659" y="30" relative="1" as="geometry">
            <mxPoint x="-60" y="2550" as="targetPoint" />
            <Array as="points">
              <mxPoint x="210" y="2490" />
              <mxPoint x="-60" y="2490" />
            </Array>
            <mxPoint as="offset" />
          </mxGeometry>
        </mxCell>
        <mxCell id="ML5cCSZE7fHTFNNnrcKf-308" style="edgeStyle=orthogonalEdgeStyle;rounded=0;orthogonalLoop=1;jettySize=auto;html=1;entryX=0;entryY=0.5;entryDx=0;entryDy=0;" edge="1" parent="WIyWlLk6GJQsqaUBKTNV-1" source="ML5cCSZE7fHTFNNnrcKf-304" target="ML5cCSZE7fHTFNNnrcKf-305">
          <mxGeometry relative="1" as="geometry" />
        </mxCell>
        <mxCell id="ML5cCSZE7fHTFNNnrcKf-309" value="HandlePassengerDetails.java" style="swimlane;fontStyle=2;align=center;verticalAlign=top;childLayout=stackLayout;horizontal=1;startSize=26;horizontalStack=0;resizeParent=1;resizeLast=0;collapsible=1;marginBottom=0;rounded=0;shadow=0;strokeWidth=1;" vertex="1" parent="WIyWlLk6GJQsqaUBKTNV-1">
          <mxGeometry x="270" y="2450" width="360" height="70" as="geometry">
            <mxRectangle x="230" y="140" width="160" height="26" as="alternateBounds" />
          </mxGeometry>
        </mxCell>
        <mxCell id="ML5cCSZE7fHTFNNnrcKf-313" value="User already subscribed to activity" style="text;align=left;verticalAlign=top;spacingLeft=4;spacingRight=4;overflow=hidden;rotatable=0;points=[[0,0.5],[1,0.5]];portConstraint=eastwest;rounded=0;shadow=0;html=0;" vertex="1" parent="ML5cCSZE7fHTFNNnrcKf-309">
          <mxGeometry y="26" width="360" height="34" as="geometry" />
        </mxCell>
        <mxCell id="ML5cCSZE7fHTFNNnrcKf-316" value="Can travel package&amp;nbsp;&lt;div&gt;subscribe&amp;nbsp;&lt;div&gt;more&lt;div&gt;passengers&lt;/div&gt;&lt;div&gt;&lt;br&gt;&lt;/div&gt;&lt;div&gt;And&amp;nbsp;&lt;/div&gt;&lt;div&gt;&lt;br&gt;&lt;/div&gt;&lt;div&gt;activity capacity is more than 0&lt;/div&gt;&lt;div&gt;&lt;br&gt;&lt;/div&gt;&lt;/div&gt;&lt;/div&gt;" style="rhombus;whiteSpace=wrap;html=1;fontColor=#000000;fillColor=#ffffc0;strokeColor=#ff0000;" vertex="1" parent="WIyWlLk6GJQsqaUBKTNV-1">
          <mxGeometry x="-270" y="2520" width="390" height="260" as="geometry" />
        </mxCell>
        <mxCell id="ML5cCSZE7fHTFNNnrcKf-317" value="Yes" style="edgeStyle=orthogonalEdgeStyle;html=1;align=left;verticalAlign=bottom;endArrow=open;endSize=8;strokeColor=#ff0000;rounded=0;" edge="1" parent="WIyWlLk6GJQsqaUBKTNV-1">
          <mxGeometry x="0.9051" y="15" relative="1" as="geometry">
            <mxPoint x="-75" y="2890" as="targetPoint" />
            <mxPoint x="-75.5" y="2780" as="sourcePoint" />
            <Array as="points">
              <mxPoint x="-75.5" y="2780" />
            </Array>
            <mxPoint as="offset" />
          </mxGeometry>
        </mxCell>
        <mxCell id="ML5cCSZE7fHTFNNnrcKf-318" value="No" style="edgeStyle=orthogonalEdgeStyle;html=1;align=left;verticalAlign=top;endArrow=open;endSize=8;strokeColor=#ff0000;rounded=0;" edge="1" parent="WIyWlLk6GJQsqaUBKTNV-1">
          <mxGeometry x="0.3659" y="30" relative="1" as="geometry">
            <mxPoint x="300" y="2800" as="targetPoint" />
            <Array as="points">
              <mxPoint x="300" y="2650" />
            </Array>
            <mxPoint as="offset" />
            <mxPoint x="120" y="2650" as="sourcePoint" />
          </mxGeometry>
        </mxCell>
        <mxCell id="ML5cCSZE7fHTFNNnrcKf-319" value="HandlePassengerDetails.java" style="swimlane;fontStyle=2;align=center;verticalAlign=top;childLayout=stackLayout;horizontal=1;startSize=26;horizontalStack=0;resizeParent=1;resizeLast=0;collapsible=1;marginBottom=0;rounded=0;shadow=0;strokeWidth=1;" vertex="1" parent="WIyWlLk6GJQsqaUBKTNV-1">
          <mxGeometry x="140" y="2800" width="360" height="70" as="geometry">
            <mxRectangle x="230" y="140" width="160" height="26" as="alternateBounds" />
          </mxGeometry>
        </mxCell>
        <mxCell id="ML5cCSZE7fHTFNNnrcKf-320" value="Subscribe failrure : print failure info" style="text;align=left;verticalAlign=top;spacingLeft=4;spacingRight=4;overflow=hidden;rotatable=0;points=[[0,0.5],[1,0.5]];portConstraint=eastwest;rounded=0;shadow=0;html=0;" vertex="1" parent="ML5cCSZE7fHTFNNnrcKf-319">
          <mxGeometry y="26" width="360" height="34" as="geometry" />
        </mxCell>
        <mxCell id="ML5cCSZE7fHTFNNnrcKf-321" value="HandlePassengerDetails.java" style="swimlane;fontStyle=2;align=center;verticalAlign=top;childLayout=stackLayout;horizontal=1;startSize=26;horizontalStack=0;resizeParent=1;resizeLast=0;collapsible=1;marginBottom=0;rounded=0;shadow=0;strokeWidth=1;" vertex="1" parent="WIyWlLk6GJQsqaUBKTNV-1">
          <mxGeometry x="-210" y="2900" width="360" height="144" as="geometry">
            <mxRectangle x="230" y="140" width="160" height="26" as="alternateBounds" />
          </mxGeometry>
        </mxCell>
        <mxCell id="ML5cCSZE7fHTFNNnrcKf-323" value="Add passenger to travel package subscribed passenger list" style="text;align=left;verticalAlign=top;spacingLeft=4;spacingRight=4;overflow=hidden;rotatable=0;points=[[0,0.5],[1,0.5]];portConstraint=eastwest;rounded=0;shadow=0;html=0;" vertex="1" parent="ML5cCSZE7fHTFNNnrcKf-321">
          <mxGeometry y="26" width="360" height="34" as="geometry" />
        </mxCell>
        <mxCell id="ML5cCSZE7fHTFNNnrcKf-322" value="Subscribe success : Print success info" style="text;align=left;verticalAlign=top;spacingLeft=4;spacingRight=4;overflow=hidden;rotatable=0;points=[[0,0.5],[1,0.5]];portConstraint=eastwest;rounded=0;shadow=0;html=0;" vertex="1" parent="ML5cCSZE7fHTFNNnrcKf-321">
          <mxGeometry y="60" width="360" height="84" as="geometry" />
        </mxCell>
        <mxCell id="ML5cCSZE7fHTFNNnrcKf-324" value="&amp;nbsp;Main.java&amp;nbsp;&lt;br&gt;Instruction 9" style="html=1;whiteSpace=wrap;" vertex="1" parent="WIyWlLk6GJQsqaUBKTNV-1">
          <mxGeometry x="530" y="1860" width="360" height="50" as="geometry" />
        </mxCell>
        <mxCell id="ML5cCSZE7fHTFNNnrcKf-326" value="Main.java" style="swimlane;fontStyle=2;align=center;verticalAlign=top;childLayout=stackLayout;horizontal=1;startSize=26;horizontalStack=0;resizeParent=1;resizeLast=0;collapsible=1;marginBottom=0;rounded=0;shadow=0;strokeWidth=1;" vertex="1" parent="WIyWlLk6GJQsqaUBKTNV-1">
          <mxGeometry x="530" y="1950" width="360" height="70" as="geometry">
            <mxRectangle x="230" y="140" width="160" height="26" as="alternateBounds" />
          </mxGeometry>
        </mxCell>
        <mxCell id="ML5cCSZE7fHTFNNnrcKf-327" value="Print subscribed passenger info with destination and activity &#xa;details" style="text;align=left;verticalAlign=top;spacingLeft=4;spacingRight=4;overflow=hidden;rotatable=0;points=[[0,0.5],[1,0.5]];portConstraint=eastwest;rounded=0;shadow=0;html=0;" vertex="1" parent="ML5cCSZE7fHTFNNnrcKf-326">
          <mxGeometry y="26" width="360" height="44" as="geometry" />
        </mxCell>
        <mxCell id="ML5cCSZE7fHTFNNnrcKf-328" value="&amp;nbsp;Main.java&amp;nbsp;&lt;br&gt;Instruction 10" style="html=1;whiteSpace=wrap;" vertex="1" parent="WIyWlLk6GJQsqaUBKTNV-1">
          <mxGeometry x="950" y="1860" width="360" height="50" as="geometry" />
        </mxCell>
        <mxCell id="ML5cCSZE7fHTFNNnrcKf-329" value="Main.java" style="swimlane;fontStyle=2;align=center;verticalAlign=top;childLayout=stackLayout;horizontal=1;startSize=26;horizontalStack=0;resizeParent=1;resizeLast=0;collapsible=1;marginBottom=0;rounded=0;shadow=0;strokeWidth=1;" vertex="1" parent="WIyWlLk6GJQsqaUBKTNV-1">
          <mxGeometry x="950" y="1950" width="360" height="70" as="geometry">
            <mxRectangle x="230" y="140" width="160" height="26" as="alternateBounds" />
          </mxGeometry>
        </mxCell>
        <mxCell id="ML5cCSZE7fHTFNNnrcKf-330" value="Print travel package details" style="text;align=left;verticalAlign=top;spacingLeft=4;spacingRight=4;overflow=hidden;rotatable=0;points=[[0,0.5],[1,0.5]];portConstraint=eastwest;rounded=0;shadow=0;html=0;" vertex="1" parent="ML5cCSZE7fHTFNNnrcKf-329">
          <mxGeometry y="26" width="360" height="44" as="geometry" />
        </mxCell>
        <mxCell id="ML5cCSZE7fHTFNNnrcKf-331" value="&amp;nbsp;Main.java&amp;nbsp;&lt;br&gt;Instruction 11" style="html=1;whiteSpace=wrap;" vertex="1" parent="WIyWlLk6GJQsqaUBKTNV-1">
          <mxGeometry x="-1580" y="3210" width="360" height="50" as="geometry" />
        </mxCell>
        <mxCell id="ML5cCSZE7fHTFNNnrcKf-332" value="Main.java" style="swimlane;fontStyle=2;align=center;verticalAlign=top;childLayout=stackLayout;horizontal=1;startSize=26;horizontalStack=0;resizeParent=1;resizeLast=0;collapsible=1;marginBottom=0;rounded=0;shadow=0;strokeWidth=1;" vertex="1" parent="WIyWlLk6GJQsqaUBKTNV-1">
          <mxGeometry x="-1580" y="3304" width="360" height="70" as="geometry">
            <mxRectangle x="230" y="140" width="160" height="26" as="alternateBounds" />
          </mxGeometry>
        </mxCell>
        <mxCell id="ML5cCSZE7fHTFNNnrcKf-333" value="Print travel package passenger list" style="text;align=left;verticalAlign=top;spacingLeft=4;spacingRight=4;overflow=hidden;rotatable=0;points=[[0,0.5],[1,0.5]];portConstraint=eastwest;rounded=0;shadow=0;html=0;" vertex="1" parent="ML5cCSZE7fHTFNNnrcKf-332">
          <mxGeometry y="26" width="360" height="44" as="geometry" />
        </mxCell>
        <mxCell id="ML5cCSZE7fHTFNNnrcKf-334" value="&amp;nbsp;Main.java&amp;nbsp;&lt;br&gt;Instruction 12" style="html=1;whiteSpace=wrap;" vertex="1" parent="WIyWlLk6GJQsqaUBKTNV-1">
          <mxGeometry x="-1180" y="3210" width="360" height="50" as="geometry" />
        </mxCell>
        <mxCell id="ML5cCSZE7fHTFNNnrcKf-335" value="Main.java" style="swimlane;fontStyle=2;align=center;verticalAlign=top;childLayout=stackLayout;horizontal=1;startSize=26;horizontalStack=0;resizeParent=1;resizeLast=0;collapsible=1;marginBottom=0;rounded=0;shadow=0;strokeWidth=1;" vertex="1" parent="WIyWlLk6GJQsqaUBKTNV-1">
          <mxGeometry x="-1180" y="3304" width="360" height="70" as="geometry">
            <mxRectangle x="230" y="140" width="160" height="26" as="alternateBounds" />
          </mxGeometry>
        </mxCell>
        <mxCell id="ML5cCSZE7fHTFNNnrcKf-336" value="Print travel package passenger info with subscribed destination&#xa;and activity info" style="text;align=left;verticalAlign=top;spacingLeft=4;spacingRight=4;overflow=hidden;rotatable=0;points=[[0,0.5],[1,0.5]];portConstraint=eastwest;rounded=0;shadow=0;html=0;" vertex="1" parent="ML5cCSZE7fHTFNNnrcKf-335">
          <mxGeometry y="26" width="360" height="44" as="geometry" />
        </mxCell>
        <mxCell id="ML5cCSZE7fHTFNNnrcKf-337" value="&amp;nbsp;Main.java&amp;nbsp;&lt;br&gt;Instruction 13" style="html=1;whiteSpace=wrap;" vertex="1" parent="WIyWlLk6GJQsqaUBKTNV-1">
          <mxGeometry x="-750" y="3210" width="360" height="50" as="geometry" />
        </mxCell>
        <mxCell id="ML5cCSZE7fHTFNNnrcKf-338" value="Main.java" style="swimlane;fontStyle=2;align=center;verticalAlign=top;childLayout=stackLayout;horizontal=1;startSize=26;horizontalStack=0;resizeParent=1;resizeLast=0;collapsible=1;marginBottom=0;rounded=0;shadow=0;strokeWidth=1;" vertex="1" parent="WIyWlLk6GJQsqaUBKTNV-1">
          <mxGeometry x="-750" y="3304" width="360" height="70" as="geometry">
            <mxRectangle x="230" y="140" width="160" height="26" as="alternateBounds" />
          </mxGeometry>
        </mxCell>
        <mxCell id="ML5cCSZE7fHTFNNnrcKf-339" value="Print activity details" style="text;align=left;verticalAlign=top;spacingLeft=4;spacingRight=4;overflow=hidden;rotatable=0;points=[[0,0.5],[1,0.5]];portConstraint=eastwest;rounded=0;shadow=0;html=0;" vertex="1" parent="ML5cCSZE7fHTFNNnrcKf-338">
          <mxGeometry y="26" width="360" height="44" as="geometry" />
        </mxCell>
        <mxCell id="ML5cCSZE7fHTFNNnrcKf-340" value="&amp;nbsp;Main.java&amp;nbsp;&lt;br&gt;Instruction -1" style="html=1;whiteSpace=wrap;" vertex="1" parent="WIyWlLk6GJQsqaUBKTNV-1">
          <mxGeometry x="-1430" y="570" width="250" height="50" as="geometry" />
        </mxCell>
        <mxCell id="ML5cCSZE7fHTFNNnrcKf-341" value="Shows initial info" style="html=1;whiteSpace=wrap;" vertex="1" parent="WIyWlLk6GJQsqaUBKTNV-1">
          <mxGeometry x="-1430" y="675" width="250" height="50" as="geometry" />
        </mxCell>
        <mxCell id="ML5cCSZE7fHTFNNnrcKf-342" value="&lt;font style=&quot;font-size: 36px;&quot;&gt;&lt;b&gt;Low Level UML Diagram&lt;/b&gt;&lt;/font&gt;" style="html=1;whiteSpace=wrap;" vertex="1" parent="WIyWlLk6GJQsqaUBKTNV-1">
          <mxGeometry x="290" y="370" width="470" height="80" as="geometry" />
        </mxCell>
      </root>
    </mxGraphModel>
  </diagram>
</mxfile>
